%TF.GenerationSoftware,KiCad,Pcbnew,(5.1.6)-1*%
%TF.CreationDate,2021-01-22T10:12:17+00:00*%
%TF.ProjectId,PPCEXP,50504345-5850-42e6-9b69-6361645f7063,rev?*%
%TF.SameCoordinates,Original*%
%TF.FileFunction,Legend,Bot*%
%TF.FilePolarity,Positive*%
%FSLAX46Y46*%
G04 Gerber Fmt 4.6, Leading zero omitted, Abs format (unit mm)*
G04 Created by KiCad (PCBNEW (5.1.6)-1) date 2021-01-22 10:12:17*
%MOMM*%
%LPD*%
G01*
G04 APERTURE LIST*
%ADD10C,0.150000*%
%ADD11C,0.300000*%
G04 APERTURE END LIST*
D10*
X214616857Y-156155880D02*
X214616857Y-155155880D01*
X214140666Y-155489214D02*
X214140666Y-156155880D01*
X214140666Y-155584452D02*
X214093047Y-155536833D01*
X213997809Y-155489214D01*
X213854952Y-155489214D01*
X213759714Y-155536833D01*
X213712095Y-155632071D01*
X213712095Y-156155880D01*
X213235904Y-155489214D02*
X213235904Y-156489214D01*
X213235904Y-155536833D02*
X213140666Y-155489214D01*
X212950190Y-155489214D01*
X212854952Y-155536833D01*
X212807333Y-155584452D01*
X212759714Y-155679690D01*
X212759714Y-155965404D01*
X212807333Y-156060642D01*
X212854952Y-156108261D01*
X212950190Y-156155880D01*
X213140666Y-156155880D01*
X213235904Y-156108261D01*
X211902571Y-155489214D02*
X211902571Y-156155880D01*
X212331142Y-155489214D02*
X212331142Y-156013023D01*
X212283523Y-156108261D01*
X212188285Y-156155880D01*
X212045428Y-156155880D01*
X211950190Y-156108261D01*
X211902571Y-156060642D01*
X211569238Y-155489214D02*
X211188285Y-155489214D01*
X211426380Y-155155880D02*
X211426380Y-156013023D01*
X211378761Y-156108261D01*
X211283523Y-156155880D01*
X211188285Y-156155880D01*
X210140666Y-156108261D02*
X210045428Y-156155880D01*
X209854952Y-156155880D01*
X209759714Y-156108261D01*
X209712095Y-156013023D01*
X209712095Y-155965404D01*
X209759714Y-155870166D01*
X209854952Y-155822547D01*
X209997809Y-155822547D01*
X210093047Y-155774928D01*
X210140666Y-155679690D01*
X210140666Y-155632071D01*
X210093047Y-155536833D01*
X209997809Y-155489214D01*
X209854952Y-155489214D01*
X209759714Y-155536833D01*
X209283523Y-156155880D02*
X209283523Y-155489214D01*
X209283523Y-155155880D02*
X209331142Y-155203500D01*
X209283523Y-155251119D01*
X209235904Y-155203500D01*
X209283523Y-155155880D01*
X209283523Y-155251119D01*
X208378761Y-155489214D02*
X208378761Y-156298738D01*
X208426380Y-156393976D01*
X208473999Y-156441595D01*
X208569238Y-156489214D01*
X208712095Y-156489214D01*
X208807333Y-156441595D01*
X208378761Y-156108261D02*
X208473999Y-156155880D01*
X208664476Y-156155880D01*
X208759714Y-156108261D01*
X208807333Y-156060642D01*
X208854952Y-155965404D01*
X208854952Y-155679690D01*
X208807333Y-155584452D01*
X208759714Y-155536833D01*
X208664476Y-155489214D01*
X208473999Y-155489214D01*
X208378761Y-155536833D01*
X207902571Y-155489214D02*
X207902571Y-156155880D01*
X207902571Y-155584452D02*
X207854952Y-155536833D01*
X207759714Y-155489214D01*
X207616857Y-155489214D01*
X207521619Y-155536833D01*
X207473999Y-155632071D01*
X207473999Y-156155880D01*
X206569238Y-156155880D02*
X206569238Y-155632071D01*
X206616857Y-155536833D01*
X206712095Y-155489214D01*
X206902571Y-155489214D01*
X206997809Y-155536833D01*
X206569238Y-156108261D02*
X206664476Y-156155880D01*
X206902571Y-156155880D01*
X206997809Y-156108261D01*
X207045428Y-156013023D01*
X207045428Y-155917785D01*
X206997809Y-155822547D01*
X206902571Y-155774928D01*
X206664476Y-155774928D01*
X206569238Y-155727309D01*
X205950190Y-156155880D02*
X206045428Y-156108261D01*
X206093047Y-156013023D01*
X206093047Y-155155880D01*
X204807333Y-155632071D02*
X204473999Y-155632071D01*
X204331142Y-156155880D02*
X204807333Y-156155880D01*
X204807333Y-155155880D01*
X204331142Y-155155880D01*
X203997809Y-156155880D02*
X203473999Y-155489214D01*
X203997809Y-155489214D02*
X203473999Y-156155880D01*
X203235904Y-155489214D02*
X202854952Y-155489214D01*
X203093047Y-155155880D02*
X203093047Y-156013023D01*
X203045428Y-156108261D01*
X202950190Y-156155880D01*
X202854952Y-156155880D01*
X202140666Y-156108261D02*
X202235904Y-156155880D01*
X202426380Y-156155880D01*
X202521619Y-156108261D01*
X202569238Y-156013023D01*
X202569238Y-155632071D01*
X202521619Y-155536833D01*
X202426380Y-155489214D01*
X202235904Y-155489214D01*
X202140666Y-155536833D01*
X202093047Y-155632071D01*
X202093047Y-155727309D01*
X202569238Y-155822547D01*
X201664476Y-156155880D02*
X201664476Y-155489214D01*
X201664476Y-155679690D02*
X201616857Y-155584452D01*
X201569238Y-155536833D01*
X201473999Y-155489214D01*
X201378761Y-155489214D01*
X201045428Y-155489214D02*
X201045428Y-156155880D01*
X201045428Y-155584452D02*
X200997809Y-155536833D01*
X200902571Y-155489214D01*
X200759714Y-155489214D01*
X200664476Y-155536833D01*
X200616857Y-155632071D01*
X200616857Y-156155880D01*
X199712095Y-156155880D02*
X199712095Y-155632071D01*
X199759714Y-155536833D01*
X199854952Y-155489214D01*
X200045428Y-155489214D01*
X200140666Y-155536833D01*
X199712095Y-156108261D02*
X199807333Y-156155880D01*
X200045428Y-156155880D01*
X200140666Y-156108261D01*
X200188285Y-156013023D01*
X200188285Y-155917785D01*
X200140666Y-155822547D01*
X200045428Y-155774928D01*
X199807333Y-155774928D01*
X199712095Y-155727309D01*
X199093047Y-156155880D02*
X199188285Y-156108261D01*
X199235904Y-156013023D01*
X199235904Y-155155880D01*
X197950190Y-156155880D02*
X197950190Y-155155880D01*
X197569238Y-155155880D01*
X197473999Y-155203500D01*
X197426380Y-155251119D01*
X197378761Y-155346357D01*
X197378761Y-155489214D01*
X197426380Y-155584452D01*
X197473999Y-155632071D01*
X197569238Y-155679690D01*
X197950190Y-155679690D01*
X196807333Y-156155880D02*
X196902571Y-156108261D01*
X196950190Y-156060642D01*
X196997809Y-155965404D01*
X196997809Y-155679690D01*
X196950190Y-155584452D01*
X196902571Y-155536833D01*
X196807333Y-155489214D01*
X196664476Y-155489214D01*
X196569238Y-155536833D01*
X196521619Y-155584452D01*
X196473999Y-155679690D01*
X196473999Y-155965404D01*
X196521619Y-156060642D01*
X196569238Y-156108261D01*
X196664476Y-156155880D01*
X196807333Y-156155880D01*
X196140666Y-155489214D02*
X195950190Y-156155880D01*
X195759714Y-155679690D01*
X195569238Y-156155880D01*
X195378761Y-155489214D01*
X194616857Y-156108261D02*
X194712095Y-156155880D01*
X194902571Y-156155880D01*
X194997809Y-156108261D01*
X195045428Y-156013023D01*
X195045428Y-155632071D01*
X194997809Y-155536833D01*
X194902571Y-155489214D01*
X194712095Y-155489214D01*
X194616857Y-155536833D01*
X194569238Y-155632071D01*
X194569238Y-155727309D01*
X195045428Y-155822547D01*
X194140666Y-156155880D02*
X194140666Y-155489214D01*
X194140666Y-155679690D02*
X194093047Y-155584452D01*
X194045428Y-155536833D01*
X193950190Y-155489214D01*
X193854952Y-155489214D01*
X192473999Y-156536833D02*
X192521619Y-156489214D01*
X192616857Y-156346357D01*
X192664476Y-156251119D01*
X192712095Y-156108261D01*
X192759714Y-155870166D01*
X192759714Y-155679690D01*
X192712095Y-155441595D01*
X192664476Y-155298738D01*
X192616857Y-155203500D01*
X192521619Y-155060642D01*
X192473999Y-155013023D01*
X192093047Y-155489214D02*
X192093047Y-156489214D01*
X192093047Y-155536833D02*
X191997809Y-155489214D01*
X191807333Y-155489214D01*
X191712095Y-155536833D01*
X191664476Y-155584452D01*
X191616857Y-155679690D01*
X191616857Y-155965404D01*
X191664476Y-156060642D01*
X191712095Y-156108261D01*
X191807333Y-156155880D01*
X191997809Y-156155880D01*
X192093047Y-156108261D01*
X191188285Y-156155880D02*
X191188285Y-155489214D01*
X191188285Y-155155880D02*
X191235904Y-155203500D01*
X191188285Y-155251119D01*
X191140666Y-155203500D01*
X191188285Y-155155880D01*
X191188285Y-155251119D01*
X190712095Y-155489214D02*
X190712095Y-156155880D01*
X190712095Y-155584452D02*
X190664476Y-155536833D01*
X190569238Y-155489214D01*
X190426380Y-155489214D01*
X190331142Y-155536833D01*
X190283523Y-155632071D01*
X190283523Y-156155880D01*
X188712095Y-155632071D02*
X188569238Y-155679690D01*
X188521619Y-155727309D01*
X188473999Y-155822547D01*
X188473999Y-155965404D01*
X188521619Y-156060642D01*
X188569238Y-156108261D01*
X188664476Y-156155880D01*
X189045428Y-156155880D01*
X189045428Y-155155880D01*
X188712095Y-155155880D01*
X188616857Y-155203500D01*
X188569238Y-155251119D01*
X188521619Y-155346357D01*
X188521619Y-155441595D01*
X188569238Y-155536833D01*
X188616857Y-155584452D01*
X188712095Y-155632071D01*
X189045428Y-155632071D01*
X188093047Y-155251119D02*
X188045428Y-155203500D01*
X187950190Y-155155880D01*
X187712095Y-155155880D01*
X187616857Y-155203500D01*
X187569238Y-155251119D01*
X187521619Y-155346357D01*
X187521619Y-155441595D01*
X187569238Y-155584452D01*
X188140666Y-156155880D01*
X187521619Y-156155880D01*
X186902571Y-155155880D02*
X186807333Y-155155880D01*
X186712095Y-155203500D01*
X186664476Y-155251119D01*
X186616857Y-155346357D01*
X186569238Y-155536833D01*
X186569238Y-155774928D01*
X186616857Y-155965404D01*
X186664476Y-156060642D01*
X186712095Y-156108261D01*
X186807333Y-156155880D01*
X186902571Y-156155880D01*
X186997809Y-156108261D01*
X187045428Y-156060642D01*
X187093047Y-155965404D01*
X187140666Y-155774928D01*
X187140666Y-155536833D01*
X187093047Y-155346357D01*
X187045428Y-155251119D01*
X186997809Y-155203500D01*
X186902571Y-155155880D01*
X186235904Y-156536833D02*
X186188285Y-156489214D01*
X186093047Y-156346357D01*
X186045428Y-156251119D01*
X185997809Y-156108261D01*
X185950190Y-155870166D01*
X185950190Y-155679690D01*
X185997809Y-155441595D01*
X186045428Y-155298738D01*
X186093047Y-155203500D01*
X186188285Y-155060642D01*
X186235904Y-155013023D01*
X184712095Y-156155880D02*
X184712095Y-155489214D01*
X184712095Y-155155880D02*
X184759714Y-155203500D01*
X184712095Y-155251119D01*
X184664476Y-155203500D01*
X184712095Y-155155880D01*
X184712095Y-155251119D01*
X184283523Y-156108261D02*
X184188285Y-156155880D01*
X183997809Y-156155880D01*
X183902571Y-156108261D01*
X183854952Y-156013023D01*
X183854952Y-155965404D01*
X183902571Y-155870166D01*
X183997809Y-155822547D01*
X184140666Y-155822547D01*
X184235904Y-155774928D01*
X184283523Y-155679690D01*
X184283523Y-155632071D01*
X184235904Y-155536833D01*
X184140666Y-155489214D01*
X183997809Y-155489214D01*
X183902571Y-155536833D01*
X182235904Y-156108261D02*
X182331142Y-156155880D01*
X182521619Y-156155880D01*
X182616857Y-156108261D01*
X182664476Y-156060642D01*
X182712095Y-155965404D01*
X182712095Y-155679690D01*
X182664476Y-155584452D01*
X182616857Y-155536833D01*
X182521619Y-155489214D01*
X182331142Y-155489214D01*
X182235904Y-155536833D01*
X181664476Y-156155880D02*
X181759714Y-156108261D01*
X181807333Y-156060642D01*
X181854952Y-155965404D01*
X181854952Y-155679690D01*
X181807333Y-155584452D01*
X181759714Y-155536833D01*
X181664476Y-155489214D01*
X181521619Y-155489214D01*
X181426380Y-155536833D01*
X181378761Y-155584452D01*
X181331142Y-155679690D01*
X181331142Y-155965404D01*
X181378761Y-156060642D01*
X181426380Y-156108261D01*
X181521619Y-156155880D01*
X181664476Y-156155880D01*
X180902571Y-155489214D02*
X180902571Y-156155880D01*
X180902571Y-155584452D02*
X180854952Y-155536833D01*
X180759714Y-155489214D01*
X180616857Y-155489214D01*
X180521619Y-155536833D01*
X180473999Y-155632071D01*
X180473999Y-156155880D01*
X179997809Y-155489214D02*
X179997809Y-156155880D01*
X179997809Y-155584452D02*
X179950190Y-155536833D01*
X179854952Y-155489214D01*
X179712095Y-155489214D01*
X179616857Y-155536833D01*
X179569238Y-155632071D01*
X179569238Y-156155880D01*
X178712095Y-156108261D02*
X178807333Y-156155880D01*
X178997809Y-156155880D01*
X179093047Y-156108261D01*
X179140666Y-156013023D01*
X179140666Y-155632071D01*
X179093047Y-155536833D01*
X178997809Y-155489214D01*
X178807333Y-155489214D01*
X178712095Y-155536833D01*
X178664476Y-155632071D01*
X178664476Y-155727309D01*
X179140666Y-155822547D01*
X177807333Y-156108261D02*
X177902571Y-156155880D01*
X178093047Y-156155880D01*
X178188285Y-156108261D01*
X178235904Y-156060642D01*
X178283523Y-155965404D01*
X178283523Y-155679690D01*
X178235904Y-155584452D01*
X178188285Y-155536833D01*
X178093047Y-155489214D01*
X177902571Y-155489214D01*
X177807333Y-155536833D01*
X177521619Y-155489214D02*
X177140666Y-155489214D01*
X177378761Y-155155880D02*
X177378761Y-156013023D01*
X177331142Y-156108261D01*
X177235904Y-156155880D01*
X177140666Y-156155880D01*
X176426380Y-156108261D02*
X176521619Y-156155880D01*
X176712095Y-156155880D01*
X176807333Y-156108261D01*
X176854952Y-156013023D01*
X176854952Y-155632071D01*
X176807333Y-155536833D01*
X176712095Y-155489214D01*
X176521619Y-155489214D01*
X176426380Y-155536833D01*
X176378761Y-155632071D01*
X176378761Y-155727309D01*
X176854952Y-155822547D01*
X175521619Y-156155880D02*
X175521619Y-155155880D01*
X175521619Y-156108261D02*
X175616857Y-156155880D01*
X175807333Y-156155880D01*
X175902571Y-156108261D01*
X175950190Y-156060642D01*
X175997809Y-155965404D01*
X175997809Y-155679690D01*
X175950190Y-155584452D01*
X175902571Y-155536833D01*
X175807333Y-155489214D01*
X175616857Y-155489214D01*
X175521619Y-155536833D01*
X174426380Y-155489214D02*
X174045428Y-155489214D01*
X174283523Y-155155880D02*
X174283523Y-156013023D01*
X174235904Y-156108261D01*
X174140666Y-156155880D01*
X174045428Y-156155880D01*
X173569238Y-156155880D02*
X173664476Y-156108261D01*
X173712095Y-156060642D01*
X173759714Y-155965404D01*
X173759714Y-155679690D01*
X173712095Y-155584452D01*
X173664476Y-155536833D01*
X173569238Y-155489214D01*
X173426380Y-155489214D01*
X173331142Y-155536833D01*
X173283523Y-155584452D01*
X173235904Y-155679690D01*
X173235904Y-155965404D01*
X173283523Y-156060642D01*
X173331142Y-156108261D01*
X173426380Y-156155880D01*
X173569238Y-156155880D01*
X172045428Y-155774928D02*
X171283523Y-155774928D01*
X171664476Y-156155880D02*
X171664476Y-155393976D01*
X170283523Y-156155880D02*
X170854952Y-156155880D01*
X170569238Y-156155880D02*
X170569238Y-155155880D01*
X170664476Y-155298738D01*
X170759714Y-155393976D01*
X170854952Y-155441595D01*
X169902571Y-155251119D02*
X169854952Y-155203500D01*
X169759714Y-155155880D01*
X169521619Y-155155880D01*
X169426380Y-155203500D01*
X169378761Y-155251119D01*
X169331142Y-155346357D01*
X169331142Y-155441595D01*
X169378761Y-155584452D01*
X169950190Y-156155880D01*
X169331142Y-156155880D01*
X168283523Y-155155880D02*
X167950190Y-156155880D01*
X167616857Y-155155880D01*
X167140666Y-156155880D02*
X167235904Y-156108261D01*
X167283523Y-156060642D01*
X167331142Y-155965404D01*
X167331142Y-155679690D01*
X167283523Y-155584452D01*
X167235904Y-155536833D01*
X167140666Y-155489214D01*
X166997809Y-155489214D01*
X166902571Y-155536833D01*
X166854952Y-155584452D01*
X166807333Y-155679690D01*
X166807333Y-155965404D01*
X166854952Y-156060642D01*
X166902571Y-156108261D01*
X166997809Y-156155880D01*
X167140666Y-156155880D01*
X166235904Y-156155880D02*
X166331142Y-156108261D01*
X166378761Y-156013023D01*
X166378761Y-155155880D01*
X165997809Y-155489214D02*
X165616857Y-155489214D01*
X165854952Y-155155880D02*
X165854952Y-156013023D01*
X165807333Y-156108261D01*
X165712095Y-156155880D01*
X165616857Y-156155880D01*
X165331142Y-156108261D02*
X165235904Y-156155880D01*
X165045428Y-156155880D01*
X164950190Y-156108261D01*
X164902571Y-156013023D01*
X164902571Y-155965404D01*
X164950190Y-155870166D01*
X165045428Y-155822547D01*
X165188285Y-155822547D01*
X165283523Y-155774928D01*
X165331142Y-155679690D01*
X165331142Y-155632071D01*
X165283523Y-155536833D01*
X165188285Y-155489214D01*
X165045428Y-155489214D01*
X164950190Y-155536833D01*
X163854952Y-155489214D02*
X163473999Y-155489214D01*
X163712095Y-155155880D02*
X163712095Y-156013023D01*
X163664476Y-156108261D01*
X163569238Y-156155880D01*
X163473999Y-156155880D01*
X162997809Y-156155880D02*
X163093047Y-156108261D01*
X163140666Y-156060642D01*
X163188285Y-155965404D01*
X163188285Y-155679690D01*
X163140666Y-155584452D01*
X163093047Y-155536833D01*
X162997809Y-155489214D01*
X162854952Y-155489214D01*
X162759714Y-155536833D01*
X162712095Y-155584452D01*
X162664476Y-155679690D01*
X162664476Y-155965404D01*
X162712095Y-156060642D01*
X162759714Y-156108261D01*
X162854952Y-156155880D01*
X162997809Y-156155880D01*
X161045428Y-156155880D02*
X161045428Y-155155880D01*
X161045428Y-156108261D02*
X161140666Y-156155880D01*
X161331142Y-156155880D01*
X161426380Y-156108261D01*
X161473999Y-156060642D01*
X161521619Y-155965404D01*
X161521619Y-155679690D01*
X161473999Y-155584452D01*
X161426380Y-155536833D01*
X161331142Y-155489214D01*
X161140666Y-155489214D01*
X161045428Y-155536833D01*
X160569238Y-156155880D02*
X160569238Y-155489214D01*
X160569238Y-155155880D02*
X160616857Y-155203500D01*
X160569238Y-155251119D01*
X160521619Y-155203500D01*
X160569238Y-155155880D01*
X160569238Y-155251119D01*
X160140666Y-156108261D02*
X160045428Y-156155880D01*
X159854952Y-156155880D01*
X159759714Y-156108261D01*
X159712095Y-156013023D01*
X159712095Y-155965404D01*
X159759714Y-155870166D01*
X159854952Y-155822547D01*
X159997809Y-155822547D01*
X160093047Y-155774928D01*
X160140666Y-155679690D01*
X160140666Y-155632071D01*
X160093047Y-155536833D01*
X159997809Y-155489214D01*
X159854952Y-155489214D01*
X159759714Y-155536833D01*
X158854952Y-156155880D02*
X158854952Y-155632071D01*
X158902571Y-155536833D01*
X158997809Y-155489214D01*
X159188285Y-155489214D01*
X159283523Y-155536833D01*
X158854952Y-156108261D02*
X158950190Y-156155880D01*
X159188285Y-156155880D01*
X159283523Y-156108261D01*
X159331142Y-156013023D01*
X159331142Y-155917785D01*
X159283523Y-155822547D01*
X159188285Y-155774928D01*
X158950190Y-155774928D01*
X158854952Y-155727309D01*
X158378761Y-156155880D02*
X158378761Y-155155880D01*
X158378761Y-155536833D02*
X158283523Y-155489214D01*
X158093047Y-155489214D01*
X157997809Y-155536833D01*
X157950190Y-155584452D01*
X157902571Y-155679690D01*
X157902571Y-155965404D01*
X157950190Y-156060642D01*
X157997809Y-156108261D01*
X158093047Y-156155880D01*
X158283523Y-156155880D01*
X158378761Y-156108261D01*
X157331142Y-156155880D02*
X157426380Y-156108261D01*
X157473999Y-156013023D01*
X157473999Y-155155880D01*
X156569238Y-156108261D02*
X156664476Y-156155880D01*
X156854952Y-156155880D01*
X156950190Y-156108261D01*
X156997809Y-156013023D01*
X156997809Y-155632071D01*
X156950190Y-155536833D01*
X156854952Y-155489214D01*
X156664476Y-155489214D01*
X156569238Y-155536833D01*
X156521619Y-155632071D01*
X156521619Y-155727309D01*
X156997809Y-155822547D01*
X155473999Y-155489214D02*
X155093047Y-155489214D01*
X155331142Y-155155880D02*
X155331142Y-156013023D01*
X155283523Y-156108261D01*
X155188285Y-156155880D01*
X155093047Y-156155880D01*
X154759714Y-156155880D02*
X154759714Y-155155880D01*
X154331142Y-156155880D02*
X154331142Y-155632071D01*
X154378761Y-155536833D01*
X154473999Y-155489214D01*
X154616857Y-155489214D01*
X154712095Y-155536833D01*
X154759714Y-155584452D01*
X153473999Y-156108261D02*
X153569238Y-156155880D01*
X153759714Y-156155880D01*
X153854952Y-156108261D01*
X153902571Y-156013023D01*
X153902571Y-155632071D01*
X153854952Y-155536833D01*
X153759714Y-155489214D01*
X153569238Y-155489214D01*
X153473999Y-155536833D01*
X153426380Y-155632071D01*
X153426380Y-155727309D01*
X153902571Y-155822547D01*
X152235904Y-156155880D02*
X152235904Y-155489214D01*
X152235904Y-155155880D02*
X152283523Y-155203500D01*
X152235904Y-155251119D01*
X152188285Y-155203500D01*
X152235904Y-155155880D01*
X152235904Y-155251119D01*
X151759714Y-155489214D02*
X151759714Y-156155880D01*
X151759714Y-155584452D02*
X151712095Y-155536833D01*
X151616857Y-155489214D01*
X151473999Y-155489214D01*
X151378761Y-155536833D01*
X151331142Y-155632071D01*
X151331142Y-156155880D01*
X150997809Y-155489214D02*
X150616857Y-155489214D01*
X150854952Y-155155880D02*
X150854952Y-156013023D01*
X150807333Y-156108261D01*
X150712095Y-156155880D01*
X150616857Y-156155880D01*
X149902571Y-156108261D02*
X149997809Y-156155880D01*
X150188285Y-156155880D01*
X150283523Y-156108261D01*
X150331142Y-156013023D01*
X150331142Y-155632071D01*
X150283523Y-155536833D01*
X150188285Y-155489214D01*
X149997809Y-155489214D01*
X149902571Y-155536833D01*
X149854952Y-155632071D01*
X149854952Y-155727309D01*
X150331142Y-155822547D01*
X149426380Y-156155880D02*
X149426380Y-155489214D01*
X149426380Y-155679690D02*
X149378761Y-155584452D01*
X149331142Y-155536833D01*
X149235904Y-155489214D01*
X149140666Y-155489214D01*
X148378761Y-156155880D02*
X148378761Y-155632071D01*
X148426380Y-155536833D01*
X148521619Y-155489214D01*
X148712095Y-155489214D01*
X148807333Y-155536833D01*
X148378761Y-156108261D02*
X148473999Y-156155880D01*
X148712095Y-156155880D01*
X148807333Y-156108261D01*
X148854952Y-156013023D01*
X148854952Y-155917785D01*
X148807333Y-155822547D01*
X148712095Y-155774928D01*
X148473999Y-155774928D01*
X148378761Y-155727309D01*
X147759714Y-156155880D02*
X147854952Y-156108261D01*
X147902571Y-156013023D01*
X147902571Y-155155880D01*
X146664476Y-156108261D02*
X146569238Y-156155880D01*
X146378761Y-156155880D01*
X146283523Y-156108261D01*
X146235904Y-156013023D01*
X146235904Y-155965404D01*
X146283523Y-155870166D01*
X146378761Y-155822547D01*
X146521619Y-155822547D01*
X146616857Y-155774928D01*
X146664476Y-155679690D01*
X146664476Y-155632071D01*
X146616857Y-155536833D01*
X146521619Y-155489214D01*
X146378761Y-155489214D01*
X146283523Y-155536833D01*
X145902571Y-155489214D02*
X145712095Y-156155880D01*
X145521619Y-155679690D01*
X145331142Y-156155880D01*
X145140666Y-155489214D01*
X144759714Y-156155880D02*
X144759714Y-155489214D01*
X144759714Y-155155880D02*
X144807333Y-155203500D01*
X144759714Y-155251119D01*
X144712095Y-155203500D01*
X144759714Y-155155880D01*
X144759714Y-155251119D01*
X144426380Y-155489214D02*
X144045428Y-155489214D01*
X144283523Y-155155880D02*
X144283523Y-156013023D01*
X144235904Y-156108261D01*
X144140666Y-156155880D01*
X144045428Y-156155880D01*
X143283523Y-156108261D02*
X143378761Y-156155880D01*
X143569238Y-156155880D01*
X143664476Y-156108261D01*
X143712095Y-156060642D01*
X143759714Y-155965404D01*
X143759714Y-155679690D01*
X143712095Y-155584452D01*
X143664476Y-155536833D01*
X143569238Y-155489214D01*
X143378761Y-155489214D01*
X143283523Y-155536833D01*
X142854952Y-156155880D02*
X142854952Y-155155880D01*
X142426380Y-156155880D02*
X142426380Y-155632071D01*
X142473999Y-155536833D01*
X142569238Y-155489214D01*
X142712095Y-155489214D01*
X142807333Y-155536833D01*
X142854952Y-155584452D01*
X141950190Y-156155880D02*
X141950190Y-155489214D01*
X141950190Y-155155880D02*
X141997809Y-155203500D01*
X141950190Y-155251119D01*
X141902571Y-155203500D01*
X141950190Y-155155880D01*
X141950190Y-155251119D01*
X141473999Y-155489214D02*
X141473999Y-156155880D01*
X141473999Y-155584452D02*
X141426380Y-155536833D01*
X141331142Y-155489214D01*
X141188285Y-155489214D01*
X141093047Y-155536833D01*
X141045428Y-155632071D01*
X141045428Y-156155880D01*
X140140666Y-155489214D02*
X140140666Y-156298738D01*
X140188285Y-156393976D01*
X140235904Y-156441595D01*
X140331142Y-156489214D01*
X140473999Y-156489214D01*
X140569238Y-156441595D01*
X140140666Y-156108261D02*
X140235904Y-156155880D01*
X140426380Y-156155880D01*
X140521619Y-156108261D01*
X140569238Y-156060642D01*
X140616857Y-155965404D01*
X140616857Y-155679690D01*
X140569238Y-155584452D01*
X140521619Y-155536833D01*
X140426380Y-155489214D01*
X140235904Y-155489214D01*
X140140666Y-155536833D01*
X138902571Y-156155880D02*
X138902571Y-155489214D01*
X138902571Y-155679690D02*
X138854952Y-155584452D01*
X138807333Y-155536833D01*
X138712095Y-155489214D01*
X138616857Y-155489214D01*
X137902571Y-156108261D02*
X137997809Y-156155880D01*
X138188285Y-156155880D01*
X138283523Y-156108261D01*
X138331142Y-156013023D01*
X138331142Y-155632071D01*
X138283523Y-155536833D01*
X138188285Y-155489214D01*
X137997809Y-155489214D01*
X137902571Y-155536833D01*
X137854952Y-155632071D01*
X137854952Y-155727309D01*
X138331142Y-155822547D01*
X136997809Y-155489214D02*
X136997809Y-156298738D01*
X137045428Y-156393976D01*
X137093047Y-156441595D01*
X137188285Y-156489214D01*
X137331142Y-156489214D01*
X137426380Y-156441595D01*
X136997809Y-156108261D02*
X137093047Y-156155880D01*
X137283523Y-156155880D01*
X137378761Y-156108261D01*
X137426380Y-156060642D01*
X137473999Y-155965404D01*
X137473999Y-155679690D01*
X137426380Y-155584452D01*
X137378761Y-155536833D01*
X137283523Y-155489214D01*
X137093047Y-155489214D01*
X136997809Y-155536833D01*
X136093047Y-155489214D02*
X136093047Y-156155880D01*
X136521619Y-155489214D02*
X136521619Y-156013023D01*
X136473999Y-156108261D01*
X136378761Y-156155880D01*
X136235904Y-156155880D01*
X136140666Y-156108261D01*
X136093047Y-156060642D01*
X135473999Y-156155880D02*
X135569238Y-156108261D01*
X135616857Y-156013023D01*
X135616857Y-155155880D01*
X134664476Y-156155880D02*
X134664476Y-155632071D01*
X134712095Y-155536833D01*
X134807333Y-155489214D01*
X134997809Y-155489214D01*
X135093047Y-155536833D01*
X134664476Y-156108261D02*
X134759714Y-156155880D01*
X134997809Y-156155880D01*
X135093047Y-156108261D01*
X135140666Y-156013023D01*
X135140666Y-155917785D01*
X135093047Y-155822547D01*
X134997809Y-155774928D01*
X134759714Y-155774928D01*
X134664476Y-155727309D01*
X134331142Y-155489214D02*
X133950190Y-155489214D01*
X134188285Y-155155880D02*
X134188285Y-156013023D01*
X134140666Y-156108261D01*
X134045428Y-156155880D01*
X133950190Y-156155880D01*
X133473999Y-156155880D02*
X133569238Y-156108261D01*
X133616857Y-156060642D01*
X133664476Y-155965404D01*
X133664476Y-155679690D01*
X133616857Y-155584452D01*
X133569238Y-155536833D01*
X133473999Y-155489214D01*
X133331142Y-155489214D01*
X133235904Y-155536833D01*
X133188285Y-155584452D01*
X133140666Y-155679690D01*
X133140666Y-155965404D01*
X133188285Y-156060642D01*
X133235904Y-156108261D01*
X133331142Y-156155880D01*
X133473999Y-156155880D01*
X132712095Y-156155880D02*
X132712095Y-155489214D01*
X132712095Y-155679690D02*
X132664476Y-155584452D01*
X132616857Y-155536833D01*
X132521619Y-155489214D01*
X132426380Y-155489214D01*
X132093047Y-156060642D02*
X132045428Y-156108261D01*
X132093047Y-156155880D01*
X132140666Y-156108261D01*
X132093047Y-156060642D01*
X132093047Y-156155880D01*
X189735904Y-156805880D02*
X189735904Y-157520166D01*
X189783523Y-157663023D01*
X189878761Y-157758261D01*
X190021619Y-157805880D01*
X190116857Y-157805880D01*
X188831142Y-156805880D02*
X189021619Y-156805880D01*
X189116857Y-156853500D01*
X189164476Y-156901119D01*
X189259714Y-157043976D01*
X189307333Y-157234452D01*
X189307333Y-157615404D01*
X189259714Y-157710642D01*
X189212095Y-157758261D01*
X189116857Y-157805880D01*
X188926380Y-157805880D01*
X188831142Y-157758261D01*
X188783523Y-157710642D01*
X188735904Y-157615404D01*
X188735904Y-157377309D01*
X188783523Y-157282071D01*
X188831142Y-157234452D01*
X188926380Y-157186833D01*
X189116857Y-157186833D01*
X189212095Y-157234452D01*
X189259714Y-157282071D01*
X189307333Y-157377309D01*
X188307333Y-157424928D02*
X187545428Y-157424928D01*
X187926380Y-157805880D02*
X187926380Y-157043976D01*
X186783523Y-156805880D02*
X186783523Y-157520166D01*
X186831142Y-157663023D01*
X186926380Y-157758261D01*
X187069238Y-157805880D01*
X187164476Y-157805880D01*
X186402571Y-156805880D02*
X185735904Y-156805880D01*
X186164476Y-157805880D01*
X184735904Y-157139214D02*
X184354952Y-157139214D01*
X184593047Y-157805880D02*
X184593047Y-156948738D01*
X184545428Y-156853500D01*
X184450190Y-156805880D01*
X184354952Y-156805880D01*
X183878761Y-157805880D02*
X183974000Y-157758261D01*
X184021619Y-157710642D01*
X184069238Y-157615404D01*
X184069238Y-157329690D01*
X184021619Y-157234452D01*
X183974000Y-157186833D01*
X183878761Y-157139214D01*
X183735904Y-157139214D01*
X183640666Y-157186833D01*
X183593047Y-157234452D01*
X183545428Y-157329690D01*
X183545428Y-157615404D01*
X183593047Y-157710642D01*
X183640666Y-157758261D01*
X183735904Y-157805880D01*
X183878761Y-157805880D01*
X183116857Y-157805880D02*
X183116857Y-157139214D01*
X183116857Y-157329690D02*
X183069238Y-157234452D01*
X183021619Y-157186833D01*
X182926380Y-157139214D01*
X182831142Y-157139214D01*
X181735904Y-157805880D02*
X181735904Y-157139214D01*
X181735904Y-157329690D02*
X181688285Y-157234452D01*
X181640666Y-157186833D01*
X181545428Y-157139214D01*
X181450190Y-157139214D01*
X180974000Y-157805880D02*
X181069238Y-157758261D01*
X181116857Y-157710642D01*
X181164476Y-157615404D01*
X181164476Y-157329690D01*
X181116857Y-157234452D01*
X181069238Y-157186833D01*
X180974000Y-157139214D01*
X180831142Y-157139214D01*
X180735904Y-157186833D01*
X180688285Y-157234452D01*
X180640666Y-157329690D01*
X180640666Y-157615404D01*
X180688285Y-157710642D01*
X180735904Y-157758261D01*
X180831142Y-157805880D01*
X180974000Y-157805880D01*
X179783523Y-157139214D02*
X179783523Y-157805880D01*
X180212095Y-157139214D02*
X180212095Y-157663023D01*
X180164476Y-157758261D01*
X180069238Y-157805880D01*
X179926380Y-157805880D01*
X179831142Y-157758261D01*
X179783523Y-157710642D01*
X179450190Y-157139214D02*
X179069238Y-157139214D01*
X179307333Y-156805880D02*
X179307333Y-157663023D01*
X179259714Y-157758261D01*
X179164476Y-157805880D01*
X179069238Y-157805880D01*
X178735904Y-157805880D02*
X178735904Y-157139214D01*
X178735904Y-156805880D02*
X178783523Y-156853500D01*
X178735904Y-156901119D01*
X178688285Y-156853500D01*
X178735904Y-156805880D01*
X178735904Y-156901119D01*
X178259714Y-157139214D02*
X178259714Y-157805880D01*
X178259714Y-157234452D02*
X178212095Y-157186833D01*
X178116857Y-157139214D01*
X177974000Y-157139214D01*
X177878761Y-157186833D01*
X177831142Y-157282071D01*
X177831142Y-157805880D01*
X176926380Y-157139214D02*
X176926380Y-157948738D01*
X176974000Y-158043976D01*
X177021619Y-158091595D01*
X177116857Y-158139214D01*
X177259714Y-158139214D01*
X177354952Y-158091595D01*
X176926380Y-157758261D02*
X177021619Y-157805880D01*
X177212095Y-157805880D01*
X177307333Y-157758261D01*
X177354952Y-157710642D01*
X177402571Y-157615404D01*
X177402571Y-157329690D01*
X177354952Y-157234452D01*
X177307333Y-157186833D01*
X177212095Y-157139214D01*
X177021619Y-157139214D01*
X176926380Y-157186833D01*
X175164476Y-157805880D02*
X175735904Y-157805880D01*
X175450190Y-157805880D02*
X175450190Y-156805880D01*
X175545428Y-156948738D01*
X175640666Y-157043976D01*
X175735904Y-157091595D01*
X174783523Y-156901119D02*
X174735904Y-156853500D01*
X174640666Y-156805880D01*
X174402571Y-156805880D01*
X174307333Y-156853500D01*
X174259714Y-156901119D01*
X174212095Y-156996357D01*
X174212095Y-157091595D01*
X174259714Y-157234452D01*
X174831142Y-157805880D01*
X174212095Y-157805880D01*
X173926380Y-156805880D02*
X173593047Y-157805880D01*
X173259714Y-156805880D01*
X172307333Y-157139214D02*
X171926380Y-157139214D01*
X172164476Y-156805880D02*
X172164476Y-157663023D01*
X172116857Y-157758261D01*
X172021619Y-157805880D01*
X171926380Y-157805880D01*
X171450190Y-157805880D02*
X171545428Y-157758261D01*
X171593047Y-157710642D01*
X171640666Y-157615404D01*
X171640666Y-157329690D01*
X171593047Y-157234452D01*
X171545428Y-157186833D01*
X171450190Y-157139214D01*
X171307333Y-157139214D01*
X171212095Y-157186833D01*
X171164476Y-157234452D01*
X171116857Y-157329690D01*
X171116857Y-157615404D01*
X171164476Y-157710642D01*
X171212095Y-157758261D01*
X171307333Y-157805880D01*
X171450190Y-157805880D01*
X169926380Y-157805880D02*
X169926380Y-156805880D01*
X169545428Y-156805880D01*
X169450190Y-156853500D01*
X169402571Y-156901119D01*
X169354952Y-156996357D01*
X169354952Y-157139214D01*
X169402571Y-157234452D01*
X169450190Y-157282071D01*
X169545428Y-157329690D01*
X169926380Y-157329690D01*
X168926380Y-157805880D02*
X168926380Y-156805880D01*
X167878761Y-157710642D02*
X167926380Y-157758261D01*
X168069238Y-157805880D01*
X168164476Y-157805880D01*
X168307333Y-157758261D01*
X168402571Y-157663023D01*
X168450190Y-157567785D01*
X168497809Y-157377309D01*
X168497809Y-157234452D01*
X168450190Y-157043976D01*
X168402571Y-156948738D01*
X168307333Y-156853500D01*
X168164476Y-156805880D01*
X168069238Y-156805880D01*
X167926380Y-156853500D01*
X167878761Y-156901119D01*
X167259714Y-156805880D02*
X167069238Y-156805880D01*
X166974000Y-156853500D01*
X166878761Y-156948738D01*
X166831142Y-157139214D01*
X166831142Y-157472547D01*
X166878761Y-157663023D01*
X166974000Y-157758261D01*
X167069238Y-157805880D01*
X167259714Y-157805880D01*
X167354952Y-157758261D01*
X167450190Y-157663023D01*
X167497809Y-157472547D01*
X167497809Y-157139214D01*
X167450190Y-156948738D01*
X167354952Y-156853500D01*
X167259714Y-156805880D01*
X166402571Y-157805880D02*
X166402571Y-156805880D01*
X166021619Y-156805880D01*
X165926380Y-156853500D01*
X165878761Y-156901119D01*
X165831142Y-156996357D01*
X165831142Y-157139214D01*
X165878761Y-157234452D01*
X165926380Y-157282071D01*
X166021619Y-157329690D01*
X166402571Y-157329690D01*
X165450190Y-157758261D02*
X165307333Y-157805880D01*
X165069238Y-157805880D01*
X164974000Y-157758261D01*
X164926380Y-157710642D01*
X164878761Y-157615404D01*
X164878761Y-157520166D01*
X164926380Y-157424928D01*
X164974000Y-157377309D01*
X165069238Y-157329690D01*
X165259714Y-157282071D01*
X165354952Y-157234452D01*
X165402571Y-157186833D01*
X165450190Y-157091595D01*
X165450190Y-156996357D01*
X165402571Y-156901119D01*
X165354952Y-156853500D01*
X165259714Y-156805880D01*
X165021619Y-156805880D01*
X164878761Y-156853500D01*
X164450190Y-156805880D02*
X164450190Y-157615404D01*
X164402571Y-157710642D01*
X164354952Y-157758261D01*
X164259714Y-157805880D01*
X164069238Y-157805880D01*
X163974000Y-157758261D01*
X163926380Y-157710642D01*
X163878761Y-157615404D01*
X163878761Y-156805880D01*
X163402571Y-157710642D02*
X163354952Y-157758261D01*
X163402571Y-157805880D01*
X163450190Y-157758261D01*
X163402571Y-157710642D01*
X163402571Y-157805880D01*
X161974000Y-156805880D02*
X161783523Y-156805880D01*
X161688285Y-156853500D01*
X161593047Y-156948738D01*
X161545428Y-157139214D01*
X161545428Y-157472547D01*
X161593047Y-157663023D01*
X161688285Y-157758261D01*
X161783523Y-157805880D01*
X161974000Y-157805880D01*
X162069238Y-157758261D01*
X162164476Y-157663023D01*
X162212095Y-157472547D01*
X162212095Y-157139214D01*
X162164476Y-156948738D01*
X162069238Y-156853500D01*
X161974000Y-156805880D01*
X161116857Y-157139214D02*
X161116857Y-158139214D01*
X161116857Y-157186833D02*
X161021619Y-157139214D01*
X160831142Y-157139214D01*
X160735904Y-157186833D01*
X160688285Y-157234452D01*
X160640666Y-157329690D01*
X160640666Y-157615404D01*
X160688285Y-157710642D01*
X160735904Y-157758261D01*
X160831142Y-157805880D01*
X161021619Y-157805880D01*
X161116857Y-157758261D01*
X160354952Y-157139214D02*
X159974000Y-157139214D01*
X160212095Y-156805880D02*
X160212095Y-157663023D01*
X160164476Y-157758261D01*
X160069238Y-157805880D01*
X159974000Y-157805880D01*
X159640666Y-157805880D02*
X159640666Y-157139214D01*
X159640666Y-156805880D02*
X159688285Y-156853500D01*
X159640666Y-156901119D01*
X159593047Y-156853500D01*
X159640666Y-156805880D01*
X159640666Y-156901119D01*
X159021619Y-157805880D02*
X159116857Y-157758261D01*
X159164476Y-157710642D01*
X159212095Y-157615404D01*
X159212095Y-157329690D01*
X159164476Y-157234452D01*
X159116857Y-157186833D01*
X159021619Y-157139214D01*
X158878761Y-157139214D01*
X158783523Y-157186833D01*
X158735904Y-157234452D01*
X158688285Y-157329690D01*
X158688285Y-157615404D01*
X158735904Y-157710642D01*
X158783523Y-157758261D01*
X158878761Y-157805880D01*
X159021619Y-157805880D01*
X158259714Y-157139214D02*
X158259714Y-157805880D01*
X158259714Y-157234452D02*
X158212095Y-157186833D01*
X158116857Y-157139214D01*
X157974000Y-157139214D01*
X157878761Y-157186833D01*
X157831142Y-157282071D01*
X157831142Y-157805880D01*
X156926380Y-157805880D02*
X156926380Y-157282071D01*
X156974000Y-157186833D01*
X157069238Y-157139214D01*
X157259714Y-157139214D01*
X157354952Y-157186833D01*
X156926380Y-157758261D02*
X157021619Y-157805880D01*
X157259714Y-157805880D01*
X157354952Y-157758261D01*
X157402571Y-157663023D01*
X157402571Y-157567785D01*
X157354952Y-157472547D01*
X157259714Y-157424928D01*
X157021619Y-157424928D01*
X156926380Y-157377309D01*
X156307333Y-157805880D02*
X156402571Y-157758261D01*
X156450190Y-157663023D01*
X156450190Y-156805880D01*
X155926380Y-157710642D02*
X155878761Y-157758261D01*
X155926380Y-157805880D01*
X155974000Y-157758261D01*
X155926380Y-157710642D01*
X155926380Y-157805880D01*
X200807333Y-158455880D02*
X200140666Y-158455880D01*
X200569238Y-159455880D01*
X199712095Y-159455880D02*
X199521619Y-159455880D01*
X199426380Y-159408261D01*
X199378761Y-159360642D01*
X199283523Y-159217785D01*
X199235904Y-159027309D01*
X199235904Y-158646357D01*
X199283523Y-158551119D01*
X199331142Y-158503500D01*
X199426380Y-158455880D01*
X199616857Y-158455880D01*
X199712095Y-158503500D01*
X199759714Y-158551119D01*
X199807333Y-158646357D01*
X199807333Y-158884452D01*
X199759714Y-158979690D01*
X199712095Y-159027309D01*
X199616857Y-159074928D01*
X199426380Y-159074928D01*
X199331142Y-159027309D01*
X199283523Y-158979690D01*
X199235904Y-158884452D01*
X198616857Y-158455880D02*
X198521619Y-158455880D01*
X198426380Y-158503500D01*
X198378761Y-158551119D01*
X198331142Y-158646357D01*
X198283523Y-158836833D01*
X198283523Y-159074928D01*
X198331142Y-159265404D01*
X198378761Y-159360642D01*
X198426380Y-159408261D01*
X198521619Y-159455880D01*
X198616857Y-159455880D01*
X198712095Y-159408261D01*
X198759714Y-159360642D01*
X198807333Y-159265404D01*
X198854952Y-159074928D01*
X198854952Y-158836833D01*
X198807333Y-158646357D01*
X198759714Y-158551119D01*
X198712095Y-158503500D01*
X198616857Y-158455880D01*
X197378761Y-158455880D02*
X197854952Y-158455880D01*
X197902571Y-158932071D01*
X197854952Y-158884452D01*
X197759714Y-158836833D01*
X197521619Y-158836833D01*
X197426380Y-158884452D01*
X197378761Y-158932071D01*
X197331142Y-159027309D01*
X197331142Y-159265404D01*
X197378761Y-159360642D01*
X197426380Y-159408261D01*
X197521619Y-159455880D01*
X197759714Y-159455880D01*
X197854952Y-159408261D01*
X197902571Y-159360642D01*
X196140666Y-159455880D02*
X196140666Y-158789214D01*
X196140666Y-158979690D02*
X196093047Y-158884452D01*
X196045428Y-158836833D01*
X195950190Y-158789214D01*
X195854952Y-158789214D01*
X195140666Y-159408261D02*
X195235904Y-159455880D01*
X195426380Y-159455880D01*
X195521619Y-159408261D01*
X195569238Y-159313023D01*
X195569238Y-158932071D01*
X195521619Y-158836833D01*
X195426380Y-158789214D01*
X195235904Y-158789214D01*
X195140666Y-158836833D01*
X195093047Y-158932071D01*
X195093047Y-159027309D01*
X195569238Y-159122547D01*
X194235904Y-158789214D02*
X194235904Y-159789214D01*
X194235904Y-159408261D02*
X194331142Y-159455880D01*
X194521619Y-159455880D01*
X194616857Y-159408261D01*
X194664476Y-159360642D01*
X194712095Y-159265404D01*
X194712095Y-158979690D01*
X194664476Y-158884452D01*
X194616857Y-158836833D01*
X194521619Y-158789214D01*
X194331142Y-158789214D01*
X194235904Y-158836833D01*
X193331142Y-158789214D02*
X193331142Y-159455880D01*
X193759714Y-158789214D02*
X193759714Y-159313023D01*
X193712095Y-159408261D01*
X193616857Y-159455880D01*
X193473999Y-159455880D01*
X193378761Y-159408261D01*
X193331142Y-159360642D01*
X192854952Y-159455880D02*
X192854952Y-158789214D01*
X192854952Y-158455880D02*
X192902571Y-158503500D01*
X192854952Y-158551119D01*
X192807333Y-158503500D01*
X192854952Y-158455880D01*
X192854952Y-158551119D01*
X192378761Y-159455880D02*
X192378761Y-158789214D01*
X192378761Y-158979690D02*
X192331142Y-158884452D01*
X192283523Y-158836833D01*
X192188285Y-158789214D01*
X192093047Y-158789214D01*
X191378761Y-159408261D02*
X191473999Y-159455880D01*
X191664476Y-159455880D01*
X191759714Y-159408261D01*
X191807333Y-159313023D01*
X191807333Y-158932071D01*
X191759714Y-158836833D01*
X191664476Y-158789214D01*
X191473999Y-158789214D01*
X191378761Y-158836833D01*
X191331142Y-158932071D01*
X191331142Y-159027309D01*
X191807333Y-159122547D01*
X190473999Y-159455880D02*
X190473999Y-158455880D01*
X190473999Y-159408261D02*
X190569238Y-159455880D01*
X190759714Y-159455880D01*
X190854952Y-159408261D01*
X190902571Y-159360642D01*
X190950190Y-159265404D01*
X190950190Y-158979690D01*
X190902571Y-158884452D01*
X190854952Y-158836833D01*
X190759714Y-158789214D01*
X190569238Y-158789214D01*
X190473999Y-158836833D01*
X189378761Y-158789214D02*
X188997809Y-158789214D01*
X189235904Y-159455880D02*
X189235904Y-158598738D01*
X189188285Y-158503500D01*
X189093047Y-158455880D01*
X188997809Y-158455880D01*
X188521619Y-159455880D02*
X188616857Y-159408261D01*
X188664476Y-159360642D01*
X188712095Y-159265404D01*
X188712095Y-158979690D01*
X188664476Y-158884452D01*
X188616857Y-158836833D01*
X188521619Y-158789214D01*
X188378761Y-158789214D01*
X188283523Y-158836833D01*
X188235904Y-158884452D01*
X188188285Y-158979690D01*
X188188285Y-159265404D01*
X188235904Y-159360642D01*
X188283523Y-159408261D01*
X188378761Y-159455880D01*
X188521619Y-159455880D01*
X187759714Y-159455880D02*
X187759714Y-158789214D01*
X187759714Y-158979690D02*
X187712095Y-158884452D01*
X187664476Y-158836833D01*
X187569238Y-158789214D01*
X187473999Y-158789214D01*
X186378761Y-159074928D02*
X185616857Y-159074928D01*
X184664476Y-158455880D02*
X185140666Y-158455880D01*
X185188285Y-158932071D01*
X185140666Y-158884452D01*
X185045428Y-158836833D01*
X184807333Y-158836833D01*
X184712095Y-158884452D01*
X184664476Y-158932071D01*
X184616857Y-159027309D01*
X184616857Y-159265404D01*
X184664476Y-159360642D01*
X184712095Y-159408261D01*
X184807333Y-159455880D01*
X185045428Y-159455880D01*
X185140666Y-159408261D01*
X185188285Y-159360642D01*
X184331142Y-158455880D02*
X183997809Y-159455880D01*
X183664476Y-158455880D01*
X182569238Y-159455880D02*
X182569238Y-158789214D01*
X182569238Y-158455880D02*
X182616857Y-158503500D01*
X182569238Y-158551119D01*
X182521619Y-158503500D01*
X182569238Y-158455880D01*
X182569238Y-158551119D01*
X182235904Y-158789214D02*
X181854952Y-158789214D01*
X182093047Y-159455880D02*
X182093047Y-158598738D01*
X182045428Y-158503500D01*
X181950190Y-158455880D01*
X181854952Y-158455880D01*
X180759714Y-158789214D02*
X180759714Y-159455880D01*
X180759714Y-158884452D02*
X180712095Y-158836833D01*
X180616857Y-158789214D01*
X180473999Y-158789214D01*
X180378761Y-158836833D01*
X180331142Y-158932071D01*
X180331142Y-159455880D01*
X179712095Y-159455880D02*
X179807333Y-159408261D01*
X179854952Y-159360642D01*
X179902571Y-159265404D01*
X179902571Y-158979690D01*
X179854952Y-158884452D01*
X179807333Y-158836833D01*
X179712095Y-158789214D01*
X179569238Y-158789214D01*
X179473999Y-158836833D01*
X179426380Y-158884452D01*
X179378761Y-158979690D01*
X179378761Y-159265404D01*
X179426380Y-159360642D01*
X179473999Y-159408261D01*
X179569238Y-159455880D01*
X179712095Y-159455880D01*
X179093047Y-158789214D02*
X178712095Y-158789214D01*
X178950190Y-158455880D02*
X178950190Y-159313023D01*
X178902571Y-159408261D01*
X178807333Y-159455880D01*
X178712095Y-159455880D01*
X177188285Y-159455880D02*
X177188285Y-158932071D01*
X177235904Y-158836833D01*
X177331142Y-158789214D01*
X177521619Y-158789214D01*
X177616857Y-158836833D01*
X177188285Y-159408261D02*
X177283523Y-159455880D01*
X177521619Y-159455880D01*
X177616857Y-159408261D01*
X177664476Y-159313023D01*
X177664476Y-159217785D01*
X177616857Y-159122547D01*
X177521619Y-159074928D01*
X177283523Y-159074928D01*
X177188285Y-159027309D01*
X176807333Y-158789214D02*
X176569238Y-159455880D01*
X176331142Y-158789214D01*
X175521619Y-159455880D02*
X175521619Y-158932071D01*
X175569238Y-158836833D01*
X175664476Y-158789214D01*
X175854952Y-158789214D01*
X175950190Y-158836833D01*
X175521619Y-159408261D02*
X175616857Y-159455880D01*
X175854952Y-159455880D01*
X175950190Y-159408261D01*
X175997809Y-159313023D01*
X175997809Y-159217785D01*
X175950190Y-159122547D01*
X175854952Y-159074928D01*
X175616857Y-159074928D01*
X175521619Y-159027309D01*
X175045428Y-159455880D02*
X175045428Y-158789214D01*
X175045428Y-158455880D02*
X175093047Y-158503500D01*
X175045428Y-158551119D01*
X174997809Y-158503500D01*
X175045428Y-158455880D01*
X175045428Y-158551119D01*
X174426380Y-159455880D02*
X174521619Y-159408261D01*
X174569238Y-159313023D01*
X174569238Y-158455880D01*
X173616857Y-159455880D02*
X173616857Y-158932071D01*
X173664476Y-158836833D01*
X173759714Y-158789214D01*
X173950190Y-158789214D01*
X174045428Y-158836833D01*
X173616857Y-159408261D02*
X173712095Y-159455880D01*
X173950190Y-159455880D01*
X174045428Y-159408261D01*
X174093047Y-159313023D01*
X174093047Y-159217785D01*
X174045428Y-159122547D01*
X173950190Y-159074928D01*
X173712095Y-159074928D01*
X173616857Y-159027309D01*
X173140666Y-159455880D02*
X173140666Y-158455880D01*
X173140666Y-158836833D02*
X173045428Y-158789214D01*
X172854952Y-158789214D01*
X172759714Y-158836833D01*
X172712095Y-158884452D01*
X172664476Y-158979690D01*
X172664476Y-159265404D01*
X172712095Y-159360642D01*
X172759714Y-159408261D01*
X172854952Y-159455880D01*
X173045428Y-159455880D01*
X173140666Y-159408261D01*
X172093047Y-159455880D02*
X172188285Y-159408261D01*
X172235904Y-159313023D01*
X172235904Y-158455880D01*
X171331142Y-159408261D02*
X171426380Y-159455880D01*
X171616857Y-159455880D01*
X171712095Y-159408261D01*
X171759714Y-159313023D01*
X171759714Y-158932071D01*
X171712095Y-158836833D01*
X171616857Y-158789214D01*
X171426380Y-158789214D01*
X171331142Y-158836833D01*
X171283523Y-158932071D01*
X171283523Y-159027309D01*
X171759714Y-159122547D01*
X169950190Y-159455880D02*
X170045428Y-159408261D01*
X170093047Y-159360642D01*
X170140666Y-159265404D01*
X170140666Y-158979690D01*
X170093047Y-158884452D01*
X170045428Y-158836833D01*
X169950190Y-158789214D01*
X169807333Y-158789214D01*
X169712095Y-158836833D01*
X169664476Y-158884452D01*
X169616857Y-158979690D01*
X169616857Y-159265404D01*
X169664476Y-159360642D01*
X169712095Y-159408261D01*
X169807333Y-159455880D01*
X169950190Y-159455880D01*
X169331142Y-158789214D02*
X168950190Y-158789214D01*
X169188285Y-159455880D02*
X169188285Y-158598738D01*
X169140666Y-158503500D01*
X169045428Y-158455880D01*
X168950190Y-158455880D01*
X167902571Y-159170166D02*
X167426380Y-159170166D01*
X167997809Y-159455880D02*
X167664476Y-158455880D01*
X167331142Y-159455880D01*
X167140666Y-158455880D02*
X166569238Y-158455880D01*
X166854952Y-159455880D02*
X166854952Y-158455880D01*
X166331142Y-158455880D02*
X165664476Y-159455880D01*
X165664476Y-158455880D02*
X166331142Y-159455880D01*
X165283523Y-159455880D02*
X165283523Y-158455880D01*
X164902571Y-158455880D01*
X164807333Y-158503500D01*
X164759714Y-158551119D01*
X164712095Y-158646357D01*
X164712095Y-158789214D01*
X164759714Y-158884452D01*
X164807333Y-158932071D01*
X164902571Y-158979690D01*
X165283523Y-158979690D01*
X164331142Y-159408261D02*
X164188285Y-159455880D01*
X163950190Y-159455880D01*
X163854952Y-159408261D01*
X163807333Y-159360642D01*
X163759714Y-159265404D01*
X163759714Y-159170166D01*
X163807333Y-159074928D01*
X163854952Y-159027309D01*
X163950190Y-158979690D01*
X164140666Y-158932071D01*
X164235904Y-158884452D01*
X164283523Y-158836833D01*
X164331142Y-158741595D01*
X164331142Y-158646357D01*
X164283523Y-158551119D01*
X164235904Y-158503500D01*
X164140666Y-158455880D01*
X163902571Y-158455880D01*
X163759714Y-158503500D01*
X163331142Y-158455880D02*
X163331142Y-159265404D01*
X163283523Y-159360642D01*
X163235904Y-159408261D01*
X163140666Y-159455880D01*
X162950190Y-159455880D01*
X162854952Y-159408261D01*
X162807333Y-159360642D01*
X162759714Y-159265404D01*
X162759714Y-158455880D01*
X162283523Y-159360642D02*
X162235904Y-159408261D01*
X162283523Y-159455880D01*
X162331142Y-159408261D01*
X162283523Y-159360642D01*
X162283523Y-159455880D01*
X161093047Y-159408261D02*
X160950190Y-159455880D01*
X160712095Y-159455880D01*
X160616857Y-159408261D01*
X160569238Y-159360642D01*
X160521619Y-159265404D01*
X160521619Y-159170166D01*
X160569238Y-159074928D01*
X160616857Y-159027309D01*
X160712095Y-158979690D01*
X160902571Y-158932071D01*
X160997809Y-158884452D01*
X161045428Y-158836833D01*
X161093047Y-158741595D01*
X161093047Y-158646357D01*
X161045428Y-158551119D01*
X160997809Y-158503500D01*
X160902571Y-158455880D01*
X160664476Y-158455880D01*
X160521619Y-158503500D01*
X159712095Y-159408261D02*
X159807333Y-159455880D01*
X159997809Y-159455880D01*
X160093047Y-159408261D01*
X160140666Y-159313023D01*
X160140666Y-158932071D01*
X160093047Y-158836833D01*
X159997809Y-158789214D01*
X159807333Y-158789214D01*
X159712095Y-158836833D01*
X159664476Y-158932071D01*
X159664476Y-159027309D01*
X160140666Y-159122547D01*
X159378761Y-158789214D02*
X158997809Y-158789214D01*
X159235904Y-158455880D02*
X159235904Y-159313023D01*
X159188285Y-159408261D01*
X159093047Y-159455880D01*
X158997809Y-159455880D01*
X157902571Y-158789214D02*
X157902571Y-159646357D01*
X157950190Y-159741595D01*
X158045428Y-159789214D01*
X158093047Y-159789214D01*
X157902571Y-158455880D02*
X157950190Y-158503500D01*
X157902571Y-158551119D01*
X157854952Y-158503500D01*
X157902571Y-158455880D01*
X157902571Y-158551119D01*
X156997809Y-158789214D02*
X156997809Y-159455880D01*
X157426380Y-158789214D02*
X157426380Y-159313023D01*
X157378761Y-159408261D01*
X157283523Y-159455880D01*
X157140666Y-159455880D01*
X157045428Y-159408261D01*
X156997809Y-159360642D01*
X156521619Y-159455880D02*
X156521619Y-158789214D01*
X156521619Y-158884452D02*
X156473999Y-158836833D01*
X156378761Y-158789214D01*
X156235904Y-158789214D01*
X156140666Y-158836833D01*
X156093047Y-158932071D01*
X156093047Y-159455880D01*
X156093047Y-158932071D02*
X156045428Y-158836833D01*
X155950190Y-158789214D01*
X155807333Y-158789214D01*
X155712095Y-158836833D01*
X155664476Y-158932071D01*
X155664476Y-159455880D01*
X155188285Y-158789214D02*
X155188285Y-159789214D01*
X155188285Y-158836833D02*
X155093047Y-158789214D01*
X154902571Y-158789214D01*
X154807333Y-158836833D01*
X154759714Y-158884452D01*
X154712095Y-158979690D01*
X154712095Y-159265404D01*
X154759714Y-159360642D01*
X154807333Y-159408261D01*
X154902571Y-159455880D01*
X155093047Y-159455880D01*
X155188285Y-159408261D01*
X153902571Y-159408261D02*
X153997809Y-159455880D01*
X154188285Y-159455880D01*
X154283523Y-159408261D01*
X154331142Y-159313023D01*
X154331142Y-158932071D01*
X154283523Y-158836833D01*
X154188285Y-158789214D01*
X153997809Y-158789214D01*
X153902571Y-158836833D01*
X153854952Y-158932071D01*
X153854952Y-159027309D01*
X154331142Y-159122547D01*
X153426380Y-159455880D02*
X153426380Y-158789214D01*
X153426380Y-158979690D02*
X153378761Y-158884452D01*
X153331142Y-158836833D01*
X153235904Y-158789214D01*
X153140666Y-158789214D01*
X152188285Y-158789214D02*
X151807333Y-158789214D01*
X152045428Y-158455880D02*
X152045428Y-159313023D01*
X151997809Y-159408261D01*
X151902571Y-159455880D01*
X151807333Y-159455880D01*
X151331142Y-159455880D02*
X151426380Y-159408261D01*
X151473999Y-159360642D01*
X151521619Y-159265404D01*
X151521619Y-158979690D01*
X151473999Y-158884452D01*
X151426380Y-158836833D01*
X151331142Y-158789214D01*
X151188285Y-158789214D01*
X151093047Y-158836833D01*
X151045428Y-158884452D01*
X150997809Y-158979690D01*
X150997809Y-159265404D01*
X151045428Y-159360642D01*
X151093047Y-159408261D01*
X151188285Y-159455880D01*
X151331142Y-159455880D01*
X149902571Y-158455880D02*
X149235904Y-158455880D01*
X149664476Y-159455880D01*
X148807333Y-159455880D02*
X148616857Y-159455880D01*
X148521619Y-159408261D01*
X148473999Y-159360642D01*
X148378761Y-159217785D01*
X148331142Y-159027309D01*
X148331142Y-158646357D01*
X148378761Y-158551119D01*
X148426380Y-158503500D01*
X148521619Y-158455880D01*
X148712095Y-158455880D01*
X148807333Y-158503500D01*
X148854952Y-158551119D01*
X148902571Y-158646357D01*
X148902571Y-158884452D01*
X148854952Y-158979690D01*
X148807333Y-159027309D01*
X148712095Y-159074928D01*
X148521619Y-159074928D01*
X148426380Y-159027309D01*
X148378761Y-158979690D01*
X148331142Y-158884452D01*
X147712095Y-158455880D02*
X147616857Y-158455880D01*
X147521619Y-158503500D01*
X147473999Y-158551119D01*
X147426380Y-158646357D01*
X147378761Y-158836833D01*
X147378761Y-159074928D01*
X147426380Y-159265404D01*
X147473999Y-159360642D01*
X147521619Y-159408261D01*
X147616857Y-159455880D01*
X147712095Y-159455880D01*
X147807333Y-159408261D01*
X147854952Y-159360642D01*
X147902571Y-159265404D01*
X147950190Y-159074928D01*
X147950190Y-158836833D01*
X147902571Y-158646357D01*
X147854952Y-158551119D01*
X147807333Y-158503500D01*
X147712095Y-158455880D01*
X146473999Y-158455880D02*
X146950190Y-158455880D01*
X146997809Y-158932071D01*
X146950190Y-158884452D01*
X146854952Y-158836833D01*
X146616857Y-158836833D01*
X146521619Y-158884452D01*
X146473999Y-158932071D01*
X146426380Y-159027309D01*
X146426380Y-159265404D01*
X146473999Y-159360642D01*
X146521619Y-159408261D01*
X146616857Y-159455880D01*
X146854952Y-159455880D01*
X146950190Y-159408261D01*
X146997809Y-159360642D01*
X145997809Y-159360642D02*
X145950190Y-159408261D01*
X145997809Y-159455880D01*
X146045428Y-159408261D01*
X145997809Y-159360642D01*
X145997809Y-159455880D01*
X190378761Y-160105880D02*
X190378761Y-160820166D01*
X190426380Y-160963023D01*
X190521619Y-161058261D01*
X190664476Y-161105880D01*
X190759714Y-161105880D01*
X189902571Y-161105880D02*
X189902571Y-160105880D01*
X189521619Y-160105880D01*
X189426380Y-160153500D01*
X189378761Y-160201119D01*
X189331142Y-160296357D01*
X189331142Y-160439214D01*
X189378761Y-160534452D01*
X189426380Y-160582071D01*
X189521619Y-160629690D01*
X189902571Y-160629690D01*
X188950190Y-160201119D02*
X188902571Y-160153500D01*
X188807333Y-160105880D01*
X188569238Y-160105880D01*
X188474000Y-160153500D01*
X188426380Y-160201119D01*
X188378761Y-160296357D01*
X188378761Y-160391595D01*
X188426380Y-160534452D01*
X188997809Y-161105880D01*
X188378761Y-161105880D01*
X187235904Y-161058261D02*
X187140666Y-161105880D01*
X186950190Y-161105880D01*
X186854952Y-161058261D01*
X186807333Y-160963023D01*
X186807333Y-160915404D01*
X186854952Y-160820166D01*
X186950190Y-160772547D01*
X187093047Y-160772547D01*
X187188285Y-160724928D01*
X187235904Y-160629690D01*
X187235904Y-160582071D01*
X187188285Y-160486833D01*
X187093047Y-160439214D01*
X186950190Y-160439214D01*
X186854952Y-160486833D01*
X186378761Y-161105880D02*
X186378761Y-160105880D01*
X185950190Y-161105880D02*
X185950190Y-160582071D01*
X185997809Y-160486833D01*
X186093047Y-160439214D01*
X186235904Y-160439214D01*
X186331142Y-160486833D01*
X186378761Y-160534452D01*
X185331142Y-161105880D02*
X185426380Y-161058261D01*
X185474000Y-161010642D01*
X185521619Y-160915404D01*
X185521619Y-160629690D01*
X185474000Y-160534452D01*
X185426380Y-160486833D01*
X185331142Y-160439214D01*
X185188285Y-160439214D01*
X185093047Y-160486833D01*
X185045428Y-160534452D01*
X184997809Y-160629690D01*
X184997809Y-160915404D01*
X185045428Y-161010642D01*
X185093047Y-161058261D01*
X185188285Y-161105880D01*
X185331142Y-161105880D01*
X184569238Y-161105880D02*
X184569238Y-160439214D01*
X184569238Y-160629690D02*
X184521619Y-160534452D01*
X184474000Y-160486833D01*
X184378761Y-160439214D01*
X184283523Y-160439214D01*
X184093047Y-160439214D02*
X183712095Y-160439214D01*
X183950190Y-160105880D02*
X183950190Y-160963023D01*
X183902571Y-161058261D01*
X183807333Y-161105880D01*
X183712095Y-161105880D01*
X183426380Y-161058261D02*
X183331142Y-161105880D01*
X183140666Y-161105880D01*
X183045428Y-161058261D01*
X182997809Y-160963023D01*
X182997809Y-160915404D01*
X183045428Y-160820166D01*
X183140666Y-160772547D01*
X183283523Y-160772547D01*
X183378761Y-160724928D01*
X183426380Y-160629690D01*
X183426380Y-160582071D01*
X183378761Y-160486833D01*
X183283523Y-160439214D01*
X183140666Y-160439214D01*
X183045428Y-160486833D01*
X181807333Y-161105880D02*
X181807333Y-160105880D01*
X181426380Y-160105880D01*
X181331142Y-160153500D01*
X181283523Y-160201119D01*
X181235904Y-160296357D01*
X181235904Y-160439214D01*
X181283523Y-160534452D01*
X181331142Y-160582071D01*
X181426380Y-160629690D01*
X181807333Y-160629690D01*
X180854952Y-161058261D02*
X180712095Y-161105880D01*
X180474000Y-161105880D01*
X180378761Y-161058261D01*
X180331142Y-161010642D01*
X180283523Y-160915404D01*
X180283523Y-160820166D01*
X180331142Y-160724928D01*
X180378761Y-160677309D01*
X180474000Y-160629690D01*
X180664476Y-160582071D01*
X180759714Y-160534452D01*
X180807333Y-160486833D01*
X180854952Y-160391595D01*
X180854952Y-160296357D01*
X180807333Y-160201119D01*
X180759714Y-160153500D01*
X180664476Y-160105880D01*
X180426380Y-160105880D01*
X180283523Y-160153500D01*
X179664476Y-160105880D02*
X179474000Y-160105880D01*
X179378761Y-160153500D01*
X179283523Y-160248738D01*
X179235904Y-160439214D01*
X179235904Y-160772547D01*
X179283523Y-160963023D01*
X179378761Y-161058261D01*
X179474000Y-161105880D01*
X179664476Y-161105880D01*
X179759714Y-161058261D01*
X179854952Y-160963023D01*
X179902571Y-160772547D01*
X179902571Y-160439214D01*
X179854952Y-160248738D01*
X179759714Y-160153500D01*
X179664476Y-160105880D01*
X178807333Y-161105880D02*
X178807333Y-160105880D01*
X178235904Y-161105880D01*
X178235904Y-160105880D01*
X177140666Y-160439214D02*
X176759714Y-160439214D01*
X176997809Y-160105880D02*
X176997809Y-160963023D01*
X176950190Y-161058261D01*
X176854952Y-161105880D01*
X176759714Y-161105880D01*
X176283523Y-161105880D02*
X176378761Y-161058261D01*
X176426380Y-161010642D01*
X176474000Y-160915404D01*
X176474000Y-160629690D01*
X176426380Y-160534452D01*
X176378761Y-160486833D01*
X176283523Y-160439214D01*
X176140666Y-160439214D01*
X176045428Y-160486833D01*
X175997809Y-160534452D01*
X175950190Y-160629690D01*
X175950190Y-160915404D01*
X175997809Y-161010642D01*
X176045428Y-161058261D01*
X176140666Y-161105880D01*
X176283523Y-161105880D01*
X174235904Y-160153500D02*
X174331142Y-160105880D01*
X174474000Y-160105880D01*
X174616857Y-160153500D01*
X174712095Y-160248738D01*
X174759714Y-160343976D01*
X174807333Y-160534452D01*
X174807333Y-160677309D01*
X174759714Y-160867785D01*
X174712095Y-160963023D01*
X174616857Y-161058261D01*
X174474000Y-161105880D01*
X174378761Y-161105880D01*
X174235904Y-161058261D01*
X174188285Y-161010642D01*
X174188285Y-160677309D01*
X174378761Y-160677309D01*
X173759714Y-161105880D02*
X173759714Y-160105880D01*
X173188285Y-161105880D01*
X173188285Y-160105880D01*
X172712095Y-161105880D02*
X172712095Y-160105880D01*
X172474000Y-160105880D01*
X172331142Y-160153500D01*
X172235904Y-160248738D01*
X172188285Y-160343976D01*
X172140666Y-160534452D01*
X172140666Y-160677309D01*
X172188285Y-160867785D01*
X172235904Y-160963023D01*
X172331142Y-161058261D01*
X172474000Y-161105880D01*
X172712095Y-161105880D01*
X171093047Y-160439214D02*
X170712095Y-160439214D01*
X170950190Y-160105880D02*
X170950190Y-160963023D01*
X170902571Y-161058261D01*
X170807333Y-161105880D01*
X170712095Y-161105880D01*
X170235904Y-161105880D02*
X170331142Y-161058261D01*
X170378761Y-161010642D01*
X170426380Y-160915404D01*
X170426380Y-160629690D01*
X170378761Y-160534452D01*
X170331142Y-160486833D01*
X170235904Y-160439214D01*
X170093047Y-160439214D01*
X169997809Y-160486833D01*
X169950190Y-160534452D01*
X169902571Y-160629690D01*
X169902571Y-160915404D01*
X169950190Y-161010642D01*
X169997809Y-161058261D01*
X170093047Y-161105880D01*
X170235904Y-161105880D01*
X168854952Y-160439214D02*
X168474000Y-160439214D01*
X168712095Y-160105880D02*
X168712095Y-160963023D01*
X168664476Y-161058261D01*
X168569238Y-161105880D01*
X168474000Y-161105880D01*
X167712095Y-160439214D02*
X167712095Y-161105880D01*
X168140666Y-160439214D02*
X168140666Y-160963023D01*
X168093047Y-161058261D01*
X167997809Y-161105880D01*
X167854952Y-161105880D01*
X167759714Y-161058261D01*
X167712095Y-161010642D01*
X167235904Y-161105880D02*
X167235904Y-160439214D01*
X167235904Y-160629690D02*
X167188285Y-160534452D01*
X167140666Y-160486833D01*
X167045428Y-160439214D01*
X166950190Y-160439214D01*
X166616857Y-160439214D02*
X166616857Y-161105880D01*
X166616857Y-160534452D02*
X166569238Y-160486833D01*
X166474000Y-160439214D01*
X166331142Y-160439214D01*
X166235904Y-160486833D01*
X166188285Y-160582071D01*
X166188285Y-161105880D01*
X164807333Y-161105880D02*
X164902571Y-161058261D01*
X164950190Y-161010642D01*
X164997809Y-160915404D01*
X164997809Y-160629690D01*
X164950190Y-160534452D01*
X164902571Y-160486833D01*
X164807333Y-160439214D01*
X164664476Y-160439214D01*
X164569238Y-160486833D01*
X164521619Y-160534452D01*
X164474000Y-160629690D01*
X164474000Y-160915404D01*
X164521619Y-161010642D01*
X164569238Y-161058261D01*
X164664476Y-161105880D01*
X164807333Y-161105880D01*
X164045428Y-160439214D02*
X164045428Y-161105880D01*
X164045428Y-160534452D02*
X163997809Y-160486833D01*
X163902571Y-160439214D01*
X163759714Y-160439214D01*
X163664476Y-160486833D01*
X163616857Y-160582071D01*
X163616857Y-161105880D01*
X162426380Y-160820166D02*
X161950190Y-160820166D01*
X162521619Y-161105880D02*
X162188285Y-160105880D01*
X161854952Y-161105880D01*
X161664476Y-160105880D02*
X161093047Y-160105880D01*
X161378761Y-161105880D02*
X161378761Y-160105880D01*
X160854952Y-160105880D02*
X160188285Y-161105880D01*
X160188285Y-160105880D02*
X160854952Y-161105880D01*
X159045428Y-161105880D02*
X159045428Y-160105880D01*
X158664476Y-160105880D01*
X158569238Y-160153500D01*
X158521619Y-160201119D01*
X158474000Y-160296357D01*
X158474000Y-160439214D01*
X158521619Y-160534452D01*
X158569238Y-160582071D01*
X158664476Y-160629690D01*
X159045428Y-160629690D01*
X158093047Y-161058261D02*
X157950190Y-161105880D01*
X157712095Y-161105880D01*
X157616857Y-161058261D01*
X157569238Y-161010642D01*
X157521619Y-160915404D01*
X157521619Y-160820166D01*
X157569238Y-160724928D01*
X157616857Y-160677309D01*
X157712095Y-160629690D01*
X157902571Y-160582071D01*
X157997809Y-160534452D01*
X158045428Y-160486833D01*
X158093047Y-160391595D01*
X158093047Y-160296357D01*
X158045428Y-160201119D01*
X157997809Y-160153500D01*
X157902571Y-160105880D01*
X157664476Y-160105880D01*
X157521619Y-160153500D01*
X157093047Y-160105880D02*
X157093047Y-160915404D01*
X157045428Y-161010642D01*
X156997809Y-161058261D01*
X156902571Y-161105880D01*
X156712095Y-161105880D01*
X156616857Y-161058261D01*
X156569238Y-161010642D01*
X156521619Y-160915404D01*
X156521619Y-160105880D01*
X156045428Y-161010642D02*
X155997809Y-161058261D01*
X156045428Y-161105880D01*
X156093047Y-161058261D01*
X156045428Y-161010642D01*
X156045428Y-161105880D01*
D11*
X160717357Y-33956642D02*
X160050690Y-33956642D01*
X159764976Y-35004261D02*
X160717357Y-35004261D01*
X160717357Y-33004261D01*
X159764976Y-33004261D01*
X158907833Y-35004261D02*
X158907833Y-33670928D01*
X158907833Y-34051880D02*
X158812595Y-33861404D01*
X158717357Y-33766166D01*
X158526880Y-33670928D01*
X158336404Y-33670928D01*
X157669738Y-35004261D02*
X157669738Y-33670928D01*
X157669738Y-33004261D02*
X157764976Y-33099500D01*
X157669738Y-33194738D01*
X157574500Y-33099500D01*
X157669738Y-33004261D01*
X157669738Y-33194738D01*
X155860214Y-34909023D02*
X156050690Y-35004261D01*
X156431642Y-35004261D01*
X156622119Y-34909023D01*
X156717357Y-34813785D01*
X156812595Y-34623309D01*
X156812595Y-34051880D01*
X156717357Y-33861404D01*
X156622119Y-33766166D01*
X156431642Y-33670928D01*
X156050690Y-33670928D01*
X155860214Y-33766166D01*
X153479261Y-35004261D02*
X153479261Y-33004261D01*
X152812595Y-34432833D01*
X152145928Y-33004261D01*
X152145928Y-35004261D01*
X150336404Y-33670928D02*
X150336404Y-35004261D01*
X151193547Y-33670928D02*
X151193547Y-34718547D01*
X151098309Y-34909023D01*
X150907833Y-35004261D01*
X150622119Y-35004261D01*
X150431642Y-34909023D01*
X150336404Y-34813785D01*
X149384023Y-35004261D02*
X149384023Y-33670928D01*
X149384023Y-34051880D02*
X149288785Y-33861404D01*
X149193547Y-33766166D01*
X149003071Y-33670928D01*
X148812595Y-33670928D01*
X148145928Y-33670928D02*
X148145928Y-35670928D01*
X148145928Y-33766166D02*
X147955452Y-33670928D01*
X147574500Y-33670928D01*
X147384023Y-33766166D01*
X147288785Y-33861404D01*
X147193547Y-34051880D01*
X147193547Y-34623309D01*
X147288785Y-34813785D01*
X147384023Y-34909023D01*
X147574500Y-35004261D01*
X147955452Y-35004261D01*
X148145928Y-34909023D01*
X146336404Y-35004261D02*
X146336404Y-33004261D01*
X145479261Y-35004261D02*
X145479261Y-33956642D01*
X145574500Y-33766166D01*
X145764976Y-33670928D01*
X146050690Y-33670928D01*
X146241166Y-33766166D01*
X146336404Y-33861404D01*
X144717357Y-33670928D02*
X144241166Y-35004261D01*
X143764976Y-33670928D02*
X144241166Y-35004261D01*
X144431642Y-35480452D01*
X144526880Y-35575690D01*
X144717357Y-35670928D01*
M02*
