M48
; DRILL file {KiCad (5.1.6)-1} date 09/24/20 22:30:05
; FORMAT={-:-/ absolute / inch / decimal}
; #@! TF.CreationDate,2020-09-24T22:30:05+01:00
; #@! TF.GenerationSoftware,Kicad,Pcbnew,(5.1.6)-1
FMAT,2
INCH
T1C0.0157
T2C0.0315
T3C0.0320
T4C0.0400
T5C0.0472
T6C0.0630
%
G90
G05
T1
X5.3452Y-2.6837
X5.3477Y-5.9056
X5.6092Y-5.232
X5.6376Y-5.6483
X5.7085Y-5.7525
X5.7218Y-3.7711
X5.7522Y-5.011
X5.8203Y-4.6466
X5.8364Y-3.3584
X6.0006Y-3.516
X6.0621Y-5.2251
X6.2471Y-5.006
X6.2474Y-3.8192
X6.3389Y-5.2251
X6.3568Y-3.9246
X6.3594Y-5.4089
X6.365Y-5.2653
X6.3861Y-4.2556
X6.3979Y-5.2418
X6.4128Y-5.1827
X6.4666Y-4.1776
X6.4711Y-5.2711
X6.4972Y-5.1641
X6.6881Y-5.835
X6.7173Y-4.4913
X6.7724Y-3.6372
X6.8282Y-3.8549
X6.8535Y-5.0076
X6.8975Y-3.6155
X6.9202Y-5.1568
X6.9316Y-3.5807
X6.9892Y-5.5217
X6.9993Y-3.5014
X7.0115Y-4.9149
X7.1054Y-5.5142
X7.1101Y-5.2616
X7.2116Y-5.2535
X7.212Y-3.3694
X7.2147Y-5.5907
X7.2462Y-5.3152
X7.2605Y-5.2648
X7.3242Y-3.3038
X7.3455Y-3.1811
X7.3903Y-5.566
X7.4087Y-5.5254
X7.4306Y-5.608
X7.4449Y-5.2553
X7.5105Y-5.5242
X7.5308Y-3.5724
X7.56Y-3.6139
X7.5888Y-3.9917
X7.5895Y-3.5346
X7.6162Y-2.8313
X7.8764Y-4.9503
X7.9061Y-4.8487
X7.952Y-5.4505
X7.9586Y-4.7735
X7.9881Y-4.8546
X8.0115Y-4.7357
X8.041Y-4.7094
X8.0641Y-4.6685
X8.0803Y-1.8916
X8.0949Y-4.6364
X8.1182Y-2.2708
X8.1244Y-4.607
X8.1961Y-2.7503
X8.201Y-3.3346
X8.2934Y-1.9257
X8.3326Y-1.9732
X8.4293Y-2.1773
X8.4375Y-2.94
T3
X7.025Y-2.1175
X7.225Y-2.1175
X5.1075Y-4.2975
X5.3075Y-4.2975
X7.0695Y-4.353
X7.1695Y-4.353
X5.32Y-2.9325
X5.52Y-2.9325
X7.3825Y-1.345
X7.5825Y-1.345
X8.1225Y-2.94
X8.3225Y-2.94
X5.405Y-5.105
X5.405Y-5.405
X5.505Y-5.105
X5.505Y-5.405
X5.605Y-5.105
X5.605Y-5.405
X5.705Y-5.105
X5.705Y-5.405
X5.805Y-5.105
X5.805Y-5.405
X5.905Y-5.105
X5.905Y-5.405
X6.005Y-5.105
X6.005Y-5.405
X6.105Y-5.105
X6.105Y-5.405
X6.205Y-5.105
X6.205Y-5.405
X6.305Y-5.105
X6.305Y-5.405
X7.1645Y-4.568
X7.1645Y-4.868
X7.75Y-1.3375
X7.95Y-1.3375
X7.8275Y-2.94
X8.0275Y-2.94
X7.4875Y-3.9608
X7.6875Y-3.9608
X7.0125Y-2.94
X7.2125Y-2.94
X5.1075Y-4.835
X5.3075Y-4.835
X7.3445Y-4.5705
X7.3445Y-4.8705
X7.537Y-4.573
X7.537Y-4.873
X5.4775Y-4.4925
X5.4775Y-4.7925
X5.5775Y-4.4925
X5.5775Y-4.7925
X5.6775Y-4.4925
X5.6775Y-4.7925
X5.7775Y-4.4925
X5.7775Y-4.7925
X5.8775Y-4.4925
X5.8775Y-4.7925
X5.9775Y-4.4925
X5.9775Y-4.7925
X6.0775Y-4.4925
X6.0775Y-4.7925
X7.4775Y-2.945
X7.6775Y-2.945
X7.4225Y-2.1175
X7.5225Y-2.1175
X7.6225Y-2.1175
X7.7225Y-2.1175
X7.8225Y-2.1175
X7.9225Y-2.1175
X8.0225Y-2.1175
X8.1225Y-2.1175
X8.2225Y-2.1175
X8.3225Y-2.1175
X5.88Y-4.0175
X5.88Y-4.3175
X7.287Y-4.353
X7.387Y-4.353
X5.3225Y-1.35
X5.5225Y-1.35
X8.105Y-1.3375
X8.305Y-1.3375
X7.537Y-4.353
X7.637Y-4.353
X6.8725Y-5.105
X6.8725Y-5.405
X6.9725Y-5.105
X6.9725Y-5.405
X7.0725Y-5.105
X7.0725Y-5.405
X7.1725Y-5.105
X7.1725Y-5.405
X7.2725Y-5.105
X7.2725Y-5.405
X7.3725Y-5.105
X7.3725Y-5.405
X7.4725Y-5.105
X7.4725Y-5.405
X7.5725Y-5.105
X7.5725Y-5.405
X7.6725Y-5.105
X7.6725Y-5.405
X7.7725Y-5.105
X7.7725Y-5.405
T4
X5.32Y-3.2325
X5.32Y-3.4325
X5.42Y-3.2325
X5.42Y-3.4325
X5.52Y-3.2325
X5.52Y-3.4325
X5.62Y-3.2325
X5.62Y-3.4325
X5.72Y-3.2325
X5.72Y-3.4325
X5.82Y-3.2325
X5.82Y-3.4325
X5.92Y-3.2325
X5.92Y-3.4325
X6.02Y-3.2325
X6.02Y-3.4325
X6.12Y-3.2325
X6.12Y-3.4325
X6.22Y-3.2325
X6.22Y-3.4325
X6.32Y-3.2325
X6.32Y-3.4325
X6.42Y-3.2325
X6.42Y-3.4325
X6.52Y-3.2325
X6.52Y-3.4325
X6.62Y-3.2325
X6.62Y-3.4325
X6.72Y-3.2325
X6.72Y-3.4325
X6.82Y-3.2325
X6.82Y-3.4325
X6.92Y-3.2325
X6.92Y-3.4325
X7.02Y-3.2325
X7.02Y-3.4325
X7.12Y-3.2325
X7.12Y-3.4325
X7.22Y-3.2325
X7.22Y-3.4325
X7.32Y-3.2325
X7.32Y-3.4325
X7.42Y-3.2325
X7.42Y-3.4325
X7.52Y-3.2325
X7.52Y-3.4325
X7.62Y-3.2325
X7.62Y-3.4325
X7.72Y-3.2325
X7.72Y-3.4325
X7.82Y-3.2325
X7.82Y-3.4325
X7.92Y-3.2325
X7.92Y-3.4325
X8.02Y-3.2325
X8.02Y-3.4325
X8.12Y-3.2325
X8.12Y-3.4325
X8.22Y-3.2325
X8.22Y-3.4325
X8.32Y-3.2325
X8.32Y-3.4325
X4.8075Y-4.9525
X4.9075Y-4.9525
X5.0075Y-4.9525
X8.831Y-3.749
X8.831Y-3.849
X4.62Y-5.855
X4.62Y-5.955
X4.72Y-5.855
X4.72Y-5.955
X4.82Y-5.855
X4.82Y-5.955
X4.92Y-5.855
X4.92Y-5.955
X5.02Y-5.855
X5.02Y-5.955
X5.12Y-5.855
X5.12Y-5.955
X5.22Y-5.855
X5.22Y-5.955
X5.32Y-5.855
X5.32Y-5.955
X5.42Y-5.855
X5.42Y-5.955
X5.52Y-5.855
X5.52Y-5.955
X5.62Y-5.855
X5.62Y-5.955
X5.72Y-5.855
X5.72Y-5.955
X5.82Y-5.855
X5.82Y-5.955
X5.92Y-5.855
X5.92Y-5.955
X6.02Y-5.855
X6.02Y-5.955
X6.12Y-5.855
X6.12Y-5.955
X6.22Y-5.855
X6.22Y-5.955
X6.32Y-5.855
X6.32Y-5.955
X6.42Y-5.855
X6.42Y-5.955
X6.52Y-5.855
X6.52Y-5.955
X4.8125Y-4.615
X4.9125Y-4.615
X5.0125Y-4.615
X6.877Y-5.859
X6.877Y-5.959
X6.977Y-5.859
X6.977Y-5.959
X7.077Y-5.859
X7.077Y-5.959
X7.177Y-5.859
X7.177Y-5.959
X7.277Y-5.859
X7.277Y-5.959
X7.377Y-5.859
X7.377Y-5.959
X7.477Y-5.859
X7.477Y-5.959
X7.577Y-5.859
X7.577Y-5.959
X7.677Y-5.859
X7.677Y-5.959
X7.777Y-5.859
X7.777Y-5.959
X7.877Y-5.859
X7.877Y-5.959
X7.977Y-5.859
X7.977Y-5.959
X8.077Y-5.859
X8.077Y-5.959
X8.177Y-5.859
X8.177Y-5.959
X8.277Y-5.859
X8.277Y-5.959
X8.377Y-5.859
X8.377Y-5.959
X8.477Y-5.859
X8.477Y-5.959
X8.577Y-5.859
X8.577Y-5.959
X8.677Y-5.859
X8.677Y-5.959
X8.777Y-5.859
X8.777Y-5.959
X5.3225Y-1.615
X5.3225Y-1.815
X5.4225Y-1.615
X5.4225Y-1.815
X5.5225Y-1.615
X5.5225Y-1.815
X5.6225Y-1.615
X5.6225Y-1.815
X5.7225Y-1.615
X5.7225Y-1.815
X5.8225Y-1.615
X5.8225Y-1.815
X5.9225Y-1.615
X5.9225Y-1.815
X6.0225Y-1.615
X6.0225Y-1.815
X6.1225Y-1.615
X6.1225Y-1.815
X6.2225Y-1.615
X6.2225Y-1.815
X6.3225Y-1.615
X6.3225Y-1.815
X6.4225Y-1.615
X6.4225Y-1.815
X6.5225Y-1.615
X6.5225Y-1.815
X6.6225Y-1.615
X6.6225Y-1.815
X6.7225Y-1.615
X6.7225Y-1.815
X6.8225Y-1.615
X6.8225Y-1.815
X6.9225Y-1.615
X6.9225Y-1.815
X7.0225Y-1.615
X7.0225Y-1.815
X7.1225Y-1.615
X7.1225Y-1.815
X7.2225Y-1.615
X7.2225Y-1.815
X7.3225Y-1.615
X7.3225Y-1.815
X7.4225Y-1.615
X7.4225Y-1.815
X7.5225Y-1.615
X7.5225Y-1.815
X7.6225Y-1.615
X7.6225Y-1.815
X7.7225Y-1.615
X7.7225Y-1.815
X7.8225Y-1.615
X7.8225Y-1.815
X7.9225Y-1.615
X7.9225Y-1.815
X8.0225Y-1.615
X8.0225Y-1.815
X8.1225Y-1.615
X8.1225Y-1.815
X8.2225Y-1.615
X8.2225Y-1.815
X8.3225Y-1.615
X8.3225Y-1.815
X5.3225Y-2.425
X5.3225Y-2.625
X5.4225Y-2.425
X5.4225Y-2.625
X5.5225Y-2.425
X5.5225Y-2.625
X5.6225Y-2.425
X5.6225Y-2.625
X5.7225Y-2.425
X5.7225Y-2.625
X5.8225Y-2.425
X5.8225Y-2.625
X5.9225Y-2.425
X5.9225Y-2.625
X6.0225Y-2.425
X6.0225Y-2.625
X6.1225Y-2.425
X6.1225Y-2.625
X6.2225Y-2.425
X6.2225Y-2.625
X6.3225Y-2.425
X6.3225Y-2.625
X6.4225Y-2.425
X6.4225Y-2.625
X6.5225Y-2.425
X6.5225Y-2.625
X6.6225Y-2.425
X6.6225Y-2.625
X6.7225Y-2.425
X6.7225Y-2.625
X6.8225Y-2.425
X6.8225Y-2.625
X6.9225Y-2.425
X6.9225Y-2.625
X7.0225Y-2.425
X7.0225Y-2.625
X7.1225Y-2.425
X7.1225Y-2.625
X7.2225Y-2.425
X7.2225Y-2.625
X7.3225Y-2.425
X7.3225Y-2.625
X7.4225Y-2.425
X7.4225Y-2.625
X7.5225Y-2.425
X7.5225Y-2.625
X7.6225Y-2.425
X7.6225Y-2.625
X7.7225Y-2.425
X7.7225Y-2.625
X7.8225Y-2.425
X7.8225Y-2.625
X7.9225Y-2.425
X7.9225Y-2.625
X8.0225Y-2.425
X8.0225Y-2.625
X8.1225Y-2.425
X8.1225Y-2.625
X8.2225Y-2.425
X8.2225Y-2.625
X8.3225Y-2.425
X8.3225Y-2.625
T5
X8.309Y-5.3796
X8.309Y-5.5764
T6
X8.6907Y-4.0949
X8.6907Y-4.2603
X8.6907Y-4.4256
X8.6907Y-4.591
X8.6907Y-4.7563
X8.6907Y-4.9217
X8.6907Y-5.087
X8.6907Y-5.2524
X8.6907Y-5.4177
X8.6907Y-5.5831
X8.9073Y-4.0949
X8.9073Y-4.2603
X8.9073Y-4.4256
X8.9073Y-4.591
X8.9073Y-4.7563
X8.9073Y-4.9217
X8.9073Y-5.087
X8.9073Y-5.2524
X8.9073Y-5.4177
X8.9073Y-5.5831
T2
G00X8.7529Y-2.2411
M15
G01X8.7529Y-2.1349
M16
G05
G00X8.9222Y-1.999
M15
G01X8.8356Y-1.999
M16
G05
G00X8.997Y-2.2313
M15
G01X8.997Y-2.1447
M16
G05
T0
M30
