%TF.GenerationSoftware,KiCad,Pcbnew,(5.1.6)-1*%
%TF.CreationDate,2020-09-24T22:30:07+01:00*%
%TF.ProjectId,PPCEXP,50504345-5850-42e6-9b69-6361645f7063,rev?*%
%TF.SameCoordinates,Original*%
%TF.FileFunction,Soldermask,Bot*%
%TF.FilePolarity,Negative*%
%FSLAX46Y46*%
G04 Gerber Fmt 4.6, Leading zero omitted, Abs format (unit mm)*
G04 Created by KiCad (PCBNEW (5.1.6)-1) date 2020-09-24 22:30:07*
%MOMM*%
%LPD*%
G01*
G04 APERTURE LIST*
%ADD10C,1.497000*%
%ADD11R,1.497000X1.497000*%
%ADD12C,2.640000*%
%ADD13R,2.640000X2.640000*%
%ADD14O,5.101260X2.899080*%
%ADD15O,2.899080X5.599100*%
%ADD16O,2.899080X5.101260*%
%ADD17R,1.878000X1.878000*%
%ADD18C,1.878000*%
%ADD19C,1.624000*%
%ADD20R,1.624000X1.624000*%
%ADD21C,2.700960*%
G04 APERTURE END LIST*
D10*
%TO.C,C13*%
X190182000Y-100604000D03*
D11*
X195262000Y-100604000D03*
%TD*%
D10*
%TO.C,C12*%
X206312000Y-74676000D03*
D11*
X211392000Y-74676000D03*
%TD*%
D10*
%TO.C,C11*%
X129730000Y-109156000D03*
D11*
X134810000Y-109156000D03*
%TD*%
D10*
%TO.C,C10*%
X205867000Y-33972500D03*
D11*
X210947000Y-33972500D03*
%TD*%
D10*
%TO.C,C9*%
X189928000Y-74803000D03*
D11*
X195008000Y-74803000D03*
%TD*%
D10*
%TO.C,C8*%
X129730000Y-122809000D03*
D11*
X134810000Y-122809000D03*
%TD*%
D10*
%TO.C,C7*%
X196850000Y-33972500D03*
D11*
X201930000Y-33972500D03*
%TD*%
D10*
%TO.C,C6*%
X198818000Y-74676000D03*
D11*
X203898000Y-74676000D03*
%TD*%
D10*
%TO.C,C5*%
X187516000Y-34163000D03*
D11*
X192596000Y-34163000D03*
%TD*%
D10*
%TO.C,C4*%
X135128000Y-74485500D03*
D11*
X140208000Y-74485500D03*
%TD*%
D10*
%TO.C,C3*%
X178118000Y-74676000D03*
D11*
X183198000Y-74676000D03*
%TD*%
D10*
%TO.C,C2*%
X135192000Y-34290000D03*
D11*
X140272000Y-34290000D03*
%TD*%
D10*
%TO.C,C1*%
X178435000Y-53784500D03*
D11*
X183515000Y-53784500D03*
%TD*%
D12*
%TO.C,J7*%
X211049000Y-136641640D03*
D13*
X211049000Y-141640360D03*
%TD*%
D14*
%TO.C,J6*%
X225524260Y-50774600D03*
D15*
X222323860Y-55575200D03*
D16*
X228524000Y-55575200D03*
%TD*%
D10*
%TO.C,U4*%
X154368000Y-121730000D03*
X151828000Y-121730000D03*
X149288000Y-121730000D03*
X146748000Y-121730000D03*
X144208000Y-121730000D03*
X141668000Y-121730000D03*
X139128000Y-121730000D03*
X139128000Y-114110000D03*
X141668000Y-114110000D03*
X144208000Y-114110000D03*
X146748000Y-114110000D03*
X149288000Y-114110000D03*
X151828000Y-114110000D03*
D11*
X154368000Y-114110000D03*
%TD*%
D17*
%TO.C,U3*%
X122238000Y-117221000D03*
D18*
X127318000Y-117221000D03*
X124778000Y-117221000D03*
%TD*%
D10*
%TO.C,R5*%
X181978000Y-123647000D03*
X181978000Y-116027000D03*
%TD*%
%TO.C,R4*%
X191440000Y-123774000D03*
X191440000Y-116154000D03*
%TD*%
%TO.C,R3*%
X186550000Y-123711000D03*
X186550000Y-116091000D03*
%TD*%
%TO.C,R1*%
X149352000Y-102044000D03*
X149352000Y-109664000D03*
%TD*%
D19*
%TO.C,JP2*%
X224307000Y-95224600D03*
D20*
X224307000Y-97764600D03*
%TD*%
D19*
%TO.C,JP1*%
X127190000Y-125794000D03*
X124650000Y-125794000D03*
D20*
X122110000Y-125794000D03*
%TD*%
D10*
%TO.C,D3*%
X182105000Y-110566000D03*
X179565000Y-110566000D03*
%TD*%
%TO.C,D2*%
X193980000Y-110566000D03*
X191440000Y-110566000D03*
%TD*%
%TO.C,D1*%
X187630000Y-110566000D03*
X185090000Y-110566000D03*
%TD*%
%TO.C,RR1*%
X188532000Y-53784500D03*
X191072000Y-53784500D03*
X193612000Y-53784500D03*
X196152000Y-53784500D03*
X198692000Y-53784500D03*
X201232000Y-53784500D03*
X203772000Y-53784500D03*
X206312000Y-53784500D03*
X208852000Y-53784500D03*
D11*
X211392000Y-53784500D03*
%TD*%
D21*
%TO.C,P1*%
X220744180Y-141811140D03*
X220744180Y-137609980D03*
X220744180Y-133411360D03*
X220744180Y-129210200D03*
X226245820Y-104010860D03*
X226245820Y-108212020D03*
X226245820Y-112410640D03*
X226245820Y-116611800D03*
X226245820Y-120810420D03*
X226245820Y-125011580D03*
X226245820Y-129210200D03*
X226245820Y-133411360D03*
X226245820Y-137609980D03*
X226245820Y-141811140D03*
X220744180Y-104010860D03*
X220744180Y-108212020D03*
X220744180Y-112410640D03*
X220744180Y-116611800D03*
X220744180Y-120810420D03*
X220744180Y-125011580D03*
%TD*%
D19*
%TO.C,J5*%
X135192000Y-46101000D03*
X137732000Y-46101000D03*
X140272000Y-46101000D03*
X142812000Y-46101000D03*
X145352000Y-46101000D03*
X147892000Y-46101000D03*
X150432000Y-46101000D03*
X152972000Y-46101000D03*
X155512000Y-46101000D03*
X158052000Y-46101000D03*
X160592000Y-46101000D03*
X163132000Y-46101000D03*
X165672000Y-46101000D03*
X168212000Y-46101000D03*
X170752000Y-46101000D03*
X173292000Y-46101000D03*
X175832000Y-46101000D03*
X178372000Y-46101000D03*
X180912000Y-46101000D03*
X183452000Y-46101000D03*
X185992000Y-46101000D03*
X188532000Y-46101000D03*
X191072000Y-46101000D03*
X193612000Y-46101000D03*
X196152000Y-46101000D03*
X198692000Y-46101000D03*
X201232000Y-46101000D03*
X203772000Y-46101000D03*
X206312000Y-46101000D03*
X208852000Y-46101000D03*
X211392000Y-46101000D03*
X135192000Y-41021000D03*
X137732000Y-41021000D03*
X140272000Y-41021000D03*
X142812000Y-41021000D03*
X145352000Y-41021000D03*
X147892000Y-41021000D03*
X150432000Y-41021000D03*
X152972000Y-41021000D03*
X155512000Y-41021000D03*
X158052000Y-41021000D03*
X160592000Y-41021000D03*
X163132000Y-41021000D03*
X165672000Y-41021000D03*
X168212000Y-41021000D03*
X170752000Y-41021000D03*
X173292000Y-41021000D03*
X175832000Y-41021000D03*
X178372000Y-41021000D03*
X180912000Y-41021000D03*
X183452000Y-41021000D03*
X185992000Y-41021000D03*
X188532000Y-41021000D03*
X191072000Y-41021000D03*
X193612000Y-41021000D03*
X196152000Y-41021000D03*
X198692000Y-41021000D03*
X201232000Y-41021000D03*
X203772000Y-41021000D03*
X206312000Y-41021000D03*
X208852000Y-41021000D03*
X211392000Y-41021000D03*
%TD*%
%TO.C,J4*%
X135192000Y-66675000D03*
X137732000Y-66675000D03*
X140272000Y-66675000D03*
X142812000Y-66675000D03*
X145352000Y-66675000D03*
X147892000Y-66675000D03*
X150432000Y-66675000D03*
X152972000Y-66675000D03*
X155512000Y-66675000D03*
X158052000Y-66675000D03*
X160592000Y-66675000D03*
X163132000Y-66675000D03*
X165672000Y-66675000D03*
X168212000Y-66675000D03*
X170752000Y-66675000D03*
X173292000Y-66675000D03*
X175832000Y-66675000D03*
X178372000Y-66675000D03*
X180912000Y-66675000D03*
X183452000Y-66675000D03*
X185992000Y-66675000D03*
X188532000Y-66675000D03*
X191072000Y-66675000D03*
X193612000Y-66675000D03*
X196152000Y-66675000D03*
X198692000Y-66675000D03*
X201232000Y-66675000D03*
X203772000Y-66675000D03*
X206312000Y-66675000D03*
X208852000Y-66675000D03*
X211392000Y-66675000D03*
X135192000Y-61595000D03*
X137732000Y-61595000D03*
X140272000Y-61595000D03*
X142812000Y-61595000D03*
X145352000Y-61595000D03*
X147892000Y-61595000D03*
X150432000Y-61595000D03*
X152972000Y-61595000D03*
X155512000Y-61595000D03*
X158052000Y-61595000D03*
X160592000Y-61595000D03*
X163132000Y-61595000D03*
X165672000Y-61595000D03*
X168212000Y-61595000D03*
X170752000Y-61595000D03*
X173292000Y-61595000D03*
X175832000Y-61595000D03*
X178372000Y-61595000D03*
X180912000Y-61595000D03*
X183452000Y-61595000D03*
X185992000Y-61595000D03*
X188532000Y-61595000D03*
X191072000Y-61595000D03*
X193612000Y-61595000D03*
X196152000Y-61595000D03*
X198692000Y-61595000D03*
X201232000Y-61595000D03*
X203772000Y-61595000D03*
X206312000Y-61595000D03*
X208852000Y-61595000D03*
X211392000Y-61595000D03*
%TD*%
D10*
%TO.C,U2*%
X197422000Y-137287000D03*
X194882000Y-137287000D03*
X192342000Y-137287000D03*
X189802000Y-137287000D03*
X187262000Y-137287000D03*
X184722000Y-137287000D03*
X182182000Y-137287000D03*
X179642000Y-137287000D03*
X177102000Y-137287000D03*
X174562000Y-137287000D03*
X174562000Y-129667000D03*
X177102000Y-129667000D03*
X179642000Y-129667000D03*
X182182000Y-129667000D03*
X184722000Y-129667000D03*
X187262000Y-129667000D03*
X189802000Y-129667000D03*
X192342000Y-129667000D03*
X194882000Y-129667000D03*
D11*
X197422000Y-129667000D03*
%TD*%
D10*
%TO.C,U1*%
X160147000Y-137287000D03*
X157607000Y-137287000D03*
X155067000Y-137287000D03*
X152527000Y-137287000D03*
X149987000Y-137287000D03*
X147447000Y-137287000D03*
X144907000Y-137287000D03*
X142367000Y-137287000D03*
X139827000Y-137287000D03*
X137287000Y-137287000D03*
X137287000Y-129667000D03*
X139827000Y-129667000D03*
X142367000Y-129667000D03*
X144907000Y-129667000D03*
X147447000Y-129667000D03*
X149987000Y-129667000D03*
X152527000Y-129667000D03*
X155067000Y-129667000D03*
X157607000Y-129667000D03*
D11*
X160147000Y-129667000D03*
%TD*%
D19*
%TO.C,J3*%
X135128000Y-87185500D03*
X137668000Y-87185500D03*
X140208000Y-87185500D03*
X142748000Y-87185500D03*
X145288000Y-87185500D03*
X147828000Y-87185500D03*
X150368000Y-87185500D03*
X152908000Y-87185500D03*
X155448000Y-87185500D03*
X157988000Y-87185500D03*
X160528000Y-87185500D03*
X163068000Y-87185500D03*
X165608000Y-87185500D03*
X168148000Y-87185500D03*
X170688000Y-87185500D03*
X173228000Y-87185500D03*
X175768000Y-87185500D03*
X178308000Y-87185500D03*
X180848000Y-87185500D03*
X183388000Y-87185500D03*
X185928000Y-87185500D03*
X188468000Y-87185500D03*
X191008000Y-87185500D03*
X193548000Y-87185500D03*
X196088000Y-87185500D03*
X198628000Y-87185500D03*
X201168000Y-87185500D03*
X203708000Y-87185500D03*
X206248000Y-87185500D03*
X208788000Y-87185500D03*
X211328000Y-87185500D03*
X135128000Y-82105500D03*
X137668000Y-82105500D03*
X140208000Y-82105500D03*
X142748000Y-82105500D03*
X145288000Y-82105500D03*
X147828000Y-82105500D03*
X150368000Y-82105500D03*
X152908000Y-82105500D03*
X155448000Y-82105500D03*
X157988000Y-82105500D03*
X160528000Y-82105500D03*
X163068000Y-82105500D03*
X165608000Y-82105500D03*
X168148000Y-82105500D03*
X170688000Y-82105500D03*
X173228000Y-82105500D03*
X175768000Y-82105500D03*
X178308000Y-82105500D03*
X180848000Y-82105500D03*
X183388000Y-82105500D03*
X185928000Y-82105500D03*
X188468000Y-82105500D03*
X191008000Y-82105500D03*
X193548000Y-82105500D03*
X196088000Y-82105500D03*
X198628000Y-82105500D03*
X201168000Y-82105500D03*
X203708000Y-82105500D03*
X206248000Y-82105500D03*
X208788000Y-82105500D03*
X211328000Y-82105500D03*
%TD*%
%TO.C,J2*%
X222936000Y-148819000D03*
X222936000Y-151359000D03*
X220396000Y-148819000D03*
X220396000Y-151359000D03*
X217856000Y-148819000D03*
X217856000Y-151359000D03*
X215316000Y-148819000D03*
X215316000Y-151359000D03*
X212776000Y-148819000D03*
X212776000Y-151359000D03*
X210236000Y-151359000D03*
X210236000Y-148819000D03*
X207696000Y-151359000D03*
X207696000Y-148819000D03*
X205156000Y-148819000D03*
X205156000Y-151359000D03*
X202616000Y-148819000D03*
X202616000Y-151359000D03*
X200076000Y-148819000D03*
X200076000Y-151359000D03*
X197536000Y-148819000D03*
X197536000Y-151359000D03*
X194996000Y-148819000D03*
X194996000Y-151359000D03*
X192456000Y-148819000D03*
X192456000Y-151359000D03*
X189916000Y-148819000D03*
X189916000Y-151359000D03*
X187376000Y-148819000D03*
X187376000Y-151359000D03*
X184836000Y-148819000D03*
X184836000Y-151359000D03*
X182296000Y-148819000D03*
X182296000Y-151359000D03*
X179756000Y-148819000D03*
X179756000Y-151359000D03*
X177216000Y-148819000D03*
X177216000Y-151359000D03*
X174676000Y-148819000D03*
D20*
X174676000Y-151359000D03*
%TD*%
D19*
%TO.C,J1*%
X165608000Y-148717000D03*
X165608000Y-151257000D03*
X163068000Y-148717000D03*
X163068000Y-151257000D03*
X160528000Y-148717000D03*
X160528000Y-151257000D03*
X157988000Y-148717000D03*
X157988000Y-151257000D03*
X155448000Y-148717000D03*
X155448000Y-151257000D03*
X152908000Y-151257000D03*
X152908000Y-148717000D03*
X150368000Y-151257000D03*
X150368000Y-148717000D03*
X147828000Y-148717000D03*
X147828000Y-151257000D03*
X145288000Y-148717000D03*
X145288000Y-151257000D03*
X142748000Y-148717000D03*
X142748000Y-151257000D03*
X140208000Y-148717000D03*
X140208000Y-151257000D03*
X137668000Y-148717000D03*
X137668000Y-151257000D03*
X135128000Y-148717000D03*
X135128000Y-151257000D03*
X132588000Y-148717000D03*
X132588000Y-151257000D03*
X130048000Y-148717000D03*
X130048000Y-151257000D03*
X127508000Y-148717000D03*
X127508000Y-151257000D03*
X124968000Y-148717000D03*
X124968000Y-151257000D03*
X122428000Y-148717000D03*
X122428000Y-151257000D03*
X119888000Y-148717000D03*
X119888000Y-151257000D03*
X117348000Y-148717000D03*
D20*
X117348000Y-151257000D03*
%TD*%
M02*
